<svg width="350" height="109" viewBox="0 0 350 109" fill="none" xmlns="http://www.w3.org/2000/svg">
<path d="M160 0.774485C154.133 2.10788 143.2 8.37449 143.866 10.1079C144.533 11.8412 142.133 18.9078 138.8 25.1745C137.6 27.4412 136.933 34.2412 136.8 45.8412C136.533 60.5078 136.933 63.9745 139.066 68.3745C141.733 73.7078 144 73.1745 142.666 67.5745C142 65.1745 142.666 63.9745 146 62.1078C148.133 60.7745 150.666 60.1078 151.333 60.5078C152.133 60.9078 152.666 60.7745 152.666 59.9745C152.666 59.3078 155.2 58.3745 158.4 57.8412C166 56.5078 169.333 54.6412 164 54.5078C158.666 54.5078 146.533 57.8412 142.666 60.3745C140.933 61.5745 139.066 62.5078 138.666 62.5078C137.733 62.5078 137.866 37.8412 138.8 35.3078C139.466 33.4412 139.866 33.4412 142.4 35.1745C144 36.2412 145.866 37.1745 146.666 37.1745C147.333 37.1745 146.133 35.9745 143.866 34.6412C135.066 29.3078 136.8 24.9078 146.133 29.0412C149.333 30.5078 151.2 31.7078 150.4 31.7078C148.533 31.8412 148 35.8412 149.866 35.8412C150.533 35.8412 151.733 34.9078 152.666 33.8412C153.6 32.7745 154 31.8412 153.6 31.8412C153.2 31.8412 153.733 28.7745 154.8 25.0412C157.2 16.9078 156.533 14.7745 154 22.5078C152.4 27.4412 150 29.7078 150 26.3745C150 25.7078 149.333 25.4412 148.666 25.8412C146.4 27.3078 143.466 23.9745 144 20.7745C144.4 19.1745 145.866 16.7745 147.466 15.4412C149.066 14.2412 149.6 13.1745 148.8 13.1745C142.8 13.1745 154.8 5.17449 161.866 4.50789C164.8 4.24119 167.866 3.70788 168.533 3.30788C169.2 2.77448 170.133 3.04118 170.666 3.84118C171.066 4.50788 173.2 5.17448 175.2 5.17448C177.333 5.17448 180.933 5.97448 183.2 6.90789L187.333 8.64118L183.333 11.5745C178.533 15.1745 178.133 18.9078 182.533 20.9078C185.466 22.2412 185.733 22.9078 184.666 26.5078C184 28.7745 183.333 31.0412 183.066 31.5745C182.533 32.6412 166.8 32.6412 162.133 31.4412C157.866 30.2412 157.6 29.8412 158.533 25.8412C159.333 22.6412 159.6 22.5078 162.4 24.5078C166.133 27.0412 168.666 27.0412 172.4 24.1078C175.6 21.7078 177.333 15.8412 176 11.9745C175.6 10.6412 173.2 8.90788 170.666 8.24118C166.666 7.04118 165.466 7.17449 162.666 9.44118C160.8 10.9078 159.466 13.3078 159.466 14.9078C159.6 17.1745 159.733 17.3078 160.266 15.4412C160.533 14.2412 161.466 13.1745 162.133 13.1745C162.933 13.1745 163.2 12.6412 162.666 11.9745C161.733 10.2412 166.666 8.77448 169.866 9.84118C171.2 10.2412 172.666 11.8412 173.066 13.4412C174 16.5078 172 21.1745 169.866 21.1745C169.066 21.1745 168.8 21.7078 169.333 22.3745C170.8 24.7745 162.933 22.9078 161.2 20.5078C159.066 17.5745 159.2 17.4412 156.533 25.5745L154.266 31.8412L161.2 33.7078C164.933 34.7745 172.4 35.8412 177.733 36.1078L187.6 36.6412L186.8 33.0412C186.4 30.6412 186.8 29.1745 188 28.6412C190.533 27.7078 191.733 29.9745 190.8 33.8412C190 37.0412 183.866 39.5745 172.666 41.5745C170.8 41.9745 172.266 42.1078 175.733 42.1078C179.333 42.1078 182.4 41.5745 182.8 40.9078C184.266 38.5078 188.4 39.8412 188.4 42.7745C188.533 44.5078 189.733 51.1745 191.066 57.8412C193.6 69.5745 193.6 69.7078 194.533 64.5078C195.066 61.4412 194.8 55.1745 194 50.5078C191.6 37.0412 191.6 36.2412 192.533 34.9078C194.266 32.1078 198.8 30.5078 200.4 32.1078C203.066 34.7745 202.133 37.0412 197.733 39.1745L193.333 41.0412L197.333 40.2412C199.6 39.8412 202.266 38.6412 203.466 37.7078C206.933 34.6412 207.6 35.5745 204.8 39.7078C201.333 44.5078 201.333 45.9745 204.533 47.8412C209.066 50.1078 209.866 49.3078 209.733 43.1745C209.733 39.3078 210.4 36.2412 211.866 34.6412C213.066 33.4412 214 31.1745 214 29.7078C214 28.3745 215.866 23.8412 218.133 19.8412C221.866 13.0412 222 12.3745 219.733 10.9078C218.533 9.97449 216.133 9.17448 214.4 9.17448C211.866 9.17448 211.333 9.84118 211.333 13.4412C211.2 19.9745 209.066 28.1078 207.066 29.3078C206.133 29.9745 203.6 30.3745 201.333 30.2412C199.2 30.1078 196.133 30.5078 194.8 31.1745C192.4 32.2412 192.266 31.7078 192.933 22.6412L193.6 13.0412L187.866 7.97449C180.266 1.30789 169.733 -1.49212 160 0.774485ZM189.066 14.1078C191.6 17.0412 190.4 25.3078 187.333 26.2412C185.6 26.6412 185.6 26.5078 187.2 25.3078C190 23.4412 187.066 17.1745 183.333 17.1745C180 17.1745 179.866 15.1745 183.066 13.3078C186.133 11.4412 186.666 11.4412 189.066 14.1078ZM175.333 19.0412C175.333 19.3078 174.266 20.3745 173.066 21.3078C170.933 23.0412 170.8 22.9078 172.533 20.7745C174.266 18.6412 175.333 17.9745 175.333 19.0412ZM208.133 34.1078C206.8 35.4412 205.6 33.4412 206.8 31.7078C207.6 30.2412 207.866 30.2412 208.4 31.7078C208.666 32.6412 208.533 33.7078 208.133 34.1078Z" fill="#804000"/>
<path d="M310 2.90792C306 3.57462 302.534 4.24132 302.267 4.50792C302 4.77462 301.467 21.1746 301.067 40.9079L300.4 76.908L306.534 76.7746L312.667 76.508L312.8 67.1746C312.8 61.9746 313.334 54.6413 313.867 50.7746C314.4 47.0413 314.4 43.8413 313.734 43.8413C312 43.8413 312.534 38.7746 314.4 37.5746C315.2 37.0413 317.2 36.5079 318.8 36.5079C320.934 36.3746 321.467 37.0413 320.934 39.4413C320.667 41.1746 319.867 42.5079 319.2 42.5079C318.534 42.5079 318.4 41.7079 318.8 40.6413C319.6 38.5079 317.334 36.6413 315.334 37.8413C312.667 39.4413 316.534 43.8413 320.667 43.8413C324.267 43.8413 325.334 45.0413 324.8 48.2413C324.667 48.9079 325.2 49.0413 325.867 48.6413C326.534 48.1079 327.6 48.5079 328.134 49.3079C328.667 50.2413 328.534 50.5079 327.734 50.1079C326.934 49.5746 326 50.6413 325.734 52.5079C324.934 56.1079 326.934 57.0413 328.267 53.7079C329.6 50.3746 331.334 54.2413 331.334 60.7746C331.334 63.8413 331.867 66.6413 332.534 67.1746C333.334 67.5746 333.6 65.9746 333.467 63.5746C333.2 61.1746 333.334 60.2413 333.6 61.4413C333.867 62.7746 334.8 63.8413 335.6 63.8413C336.4 63.8413 336.667 64.2413 336.267 64.7746C335.734 65.1746 336.4 66.3746 337.734 67.3079C339.867 68.9079 339.867 69.0413 337.6 69.8413C336.134 70.508 334.267 69.9746 332.8 68.6413C331.467 67.4413 330.134 66.9079 329.6 67.3079C329.2 67.7079 328.134 65.7079 327.467 62.7746C326.667 59.8413 324.934 57.0413 323.734 56.6413C322.134 55.9746 321.867 55.4413 323.067 54.2413C325.334 51.9746 325.067 49.1746 322.667 49.1746C321.6 49.1746 320.667 49.8413 320.667 50.6413C320.667 51.3079 321.334 51.5746 322 51.1746C322.8 50.7746 323.334 51.0413 323.334 51.7079C323.334 54.1079 320.934 53.4413 319.467 50.6413C317.867 47.7079 318.8 46.3746 321.734 47.4413C323.734 47.9746 323.734 47.8413 322 46.6413C319.467 44.7746 315.334 44.7746 315.334 46.5079C315.334 48.6413 321.867 61.0413 326.267 67.4413L330.134 73.1746H339.6H349.067L343.467 67.1746C338.4 61.7079 323.334 39.8413 323.334 37.9746C323.334 37.5746 325.467 37.1746 328 37.1746C333.734 37.1746 342.667 32.9079 344.667 29.3079C346.8 25.0413 346.267 15.5746 343.467 11.0413C339.067 3.84132 324.4 0.374623 310 2.90792ZM314.667 7.04132C311.2 7.97462 308.4 10.1079 306.4 13.0413C304.667 15.5746 303.334 16.6413 303.334 15.5746C303.334 14.6413 304 13.0413 304.934 12.1079C305.867 11.1746 306 10.5079 305.334 10.5079C304.8 10.5079 305.2 9.44132 306.4 8.10792C307.734 6.77462 310.667 5.70792 314.267 5.57462L320 5.44132L314.667 7.04132ZM334 7.17462C338.8 9.57462 342 14.1079 342 18.2413C342 19.9746 342.534 21.0413 343.2 20.6413C345.467 19.1746 341.6 29.1746 338.934 31.4413C336.267 33.8413 336.267 33.8413 338.534 30.3746C339.734 28.5079 340.4 25.8413 339.867 24.6413C339.067 22.6413 338.934 22.6413 337.2 24.7746C334.934 27.7079 334.8 26.3746 336.934 21.8413C339.067 17.1746 336.534 12.2413 330.934 9.84132C327.6 8.37462 327.334 7.84132 329.334 7.70792C330.8 7.57462 330 7.04132 327.334 6.50792C323.067 5.57462 322.934 5.57462 326.4 5.30792C328.4 5.30792 331.867 6.10792 334 7.17462ZM310.534 12.5079C309.067 14.7746 308.667 17.4413 309.2 21.4413C309.6 24.6413 309.867 27.5746 309.867 28.1079C310 28.6413 311.334 29.3079 313.067 29.5746L316 30.1079L312.934 30.3746C306.934 30.6413 304.667 17.3079 309.734 11.4413C312.667 8.10792 313.067 8.64132 310.534 12.5079ZM328.4 11.3079C330.534 12.7746 331.334 14.6413 331.334 18.2413C331.334 24.2413 330.267 25.9746 325.867 27.5746C315.6 31.5746 306.267 21.0413 312.667 12.7746C316 8.50792 323.467 7.84132 328.4 11.3079ZM335.734 19.1746C335.334 20.3746 334.667 21.0413 334.4 20.6413C334 20.2413 334.134 19.4413 334.667 18.6413C335.867 16.5079 336.667 16.9079 335.734 19.1746ZM337.467 26.9079C338.4 25.5746 339.334 25.1746 339.334 26.1079C339.334 26.9079 337.867 28.7746 336 30.2413C333.6 32.1079 333.2 33.1746 334.267 33.7079C335.2 34.1079 334.267 33.9746 332.134 33.5746C330 33.1746 328.534 33.3079 329.067 33.9746C329.467 34.6413 326.4 35.0413 322.134 34.7746C316 34.3746 314.134 34.7746 312.134 36.9079C310.267 39.0413 310.134 40.2413 311.2 42.3746C312 43.8413 312.667 46.3746 312.534 48.1079C312.534 50.3746 312 49.7079 310.667 45.8413C309.067 41.4413 308.934 41.1746 309.467 44.7746C309.867 47.0413 309.467 49.3079 308.667 49.8413C307.6 50.5079 307.6 51.1746 308.667 52.5079C310.4 54.6413 308.267 59.8413 305.734 59.8413C304.934 59.8413 304.667 60.2413 305.067 60.7746C305.6 61.1746 307.334 60.5079 308.8 59.0413C310.8 57.3079 311.467 57.1746 311.067 58.3746C309.867 62.2413 306.267 63.3079 303.734 60.6413C302.4 59.3079 302.134 58.5079 302.934 59.0413C304.267 59.7079 304.4 58.9079 303.734 55.5746L302.934 51.1746L305.734 53.7079C307.334 55.1746 308.667 55.5746 308.667 54.7746C308.667 53.9746 307.334 52.3746 305.734 51.3079L302.8 49.1746H305.734C309.334 49.1746 309.334 48.3746 306.134 43.0413C304.8 40.7746 304 38.3746 304.534 37.7079C305.867 35.8413 308.934 35.5746 308.267 37.4413C308 38.3746 306.934 39.0413 306.134 38.7746C305.2 38.6413 304.934 39.0413 305.467 39.9746C306.134 41.1746 307.2 40.6413 308.934 38.6413C310.267 36.9079 310.934 35.0413 310.667 34.3746C309.867 33.1746 312.134 32.5079 322 31.1746C328.267 30.3746 332.534 27.4413 332.8 23.9746C332.8 22.7746 333.467 23.5746 334.267 25.5746C335.467 29.0413 335.734 29.1746 337.467 26.9079ZM308 34.2413C307.067 36.7746 305.334 35.0413 304 30.5079C303.334 27.8413 303.467 27.5746 304.667 29.1746C305.867 30.7746 306.134 30.3746 305.467 27.1746L304.8 23.1746L306.8 27.7079C307.867 30.1079 308.4 33.1746 308 34.2413ZM318 39.8413C318 40.5079 317.734 41.1746 317.467 41.1746C317.067 41.1746 316.4 40.5079 316 39.8413C315.6 39.0413 315.867 38.5079 316.534 38.5079C317.334 38.5079 318 39.0413 318 39.8413ZM304.934 46.7746C304 47.7079 303.334 47.8413 303.334 47.0413C303.334 45.1746 304.934 43.5746 305.867 44.5079C306.134 44.9079 305.734 45.9746 304.934 46.7746ZM304.4 65.8413C304 66.2413 303.2 65.5746 302.8 64.2413C302 62.3746 302.134 62.2413 303.467 63.4413C304.4 64.3746 304.8 65.4413 304.4 65.8413ZM310.934 67.8413C310.667 70.7746 310 73.5746 309.334 74.108C308.8 74.7746 308.8 74.3746 309.334 73.308C310.134 71.8413 309.867 71.5746 307.867 72.3746C303.467 74.108 303.067 73.9746 302.534 70.508C302.134 67.7079 302.267 67.5746 303.467 69.4413C304.134 70.7746 305.467 71.8413 306.4 71.8413C307.6 71.8413 307.6 71.5746 306.4 70.7746C305.334 70.108 305.334 68.9079 306.8 66.5079L308.8 63.1746L308 66.9079C307.467 69.4413 307.734 70.3746 308.667 69.8413C309.334 69.4413 310 67.5746 310 65.7079C310 63.9746 310.267 62.5079 310.8 62.5079C311.2 62.5079 311.2 64.9079 310.934 67.8413Z" fill="#804000"/>
<path d="M334.266 9.97461C336.4 11.0413 338.266 13.4413 338.8 15.5746C339.2 17.5746 340.133 20.6413 340.8 22.508L342 25.8413L341.333 22.508C341.066 20.6413 340.666 18.108 340.666 16.7746C340.666 13.9746 334.933 7.84131 332.4 7.84131C331.466 7.97461 332.266 8.77461 334.266 9.97461Z" fill="#804000"/>
<path d="M332.267 28.3745C331.867 29.4411 329.467 30.9078 327.067 31.7078C324.667 32.3745 323.6 33.0411 324.8 33.0411C328.933 33.3078 335.2 29.8411 334.133 27.9745C333.2 26.6411 332.933 26.7745 332.267 28.3745Z" fill="#804000"/>
<path d="M304.667 55.8411C304.667 56.5078 305.334 57.1745 306.134 57.1745C306.8 57.1745 307.067 56.5078 306.667 55.8411C306.267 55.0411 305.6 54.5078 305.2 54.5078C304.934 54.5078 304.667 55.0411 304.667 55.8411Z" fill="#804000"/>
<path d="M4.6667 3.44109L0 3.97439L0.4 44.9077C0.5333 67.4411 1.0667 87.8411 1.4667 90.3741L2.1333 94.9081L13.0667 94.1081C29.8667 93.0411 46.5333 85.0411 52.8 75.0411C59.8667 63.5744 54.9333 47.5744 41.7333 39.4411C35.8667 35.8411 35.3333 35.0411 37.3333 33.8411C46.8 28.2411 49.2 22.2411 45.2 13.8411C42 6.90769 34.2667 3.57439 20.1333 3.17439C14.1333 2.90769 7.2 3.04109 4.6667 3.44109ZM31.7333 7.70769C33.7333 8.50769 37.2 10.5077 39.4667 12.1077C43.2 14.9077 43.6 15.7077 42.9333 21.1744C42.2667 27.5744 37.3333 33.0411 32 33.3077C29.7333 33.4411 29.7333 33.5744 31.7333 34.1077C32.9333 34.3744 34 35.1744 34 35.8411C34 36.5077 32.2667 36.3744 30 35.7077C27.8667 34.9077 25.3333 34.5077 24.4 34.9077C23.4667 35.1744 25.3333 36.2411 28.6667 37.1744C37.8667 39.7077 44 43.3077 48.5333 48.7744C54.5333 56.1077 53.6 56.7744 47.0667 49.7077C41.3333 43.4411 38 43.7077 41.4667 50.3744C44.4 55.8411 43.6 56.6411 40.2667 51.7077C38.4 48.9077 35.7333 46.9077 33.3333 46.3744L29.3333 45.4411L33.0667 45.3077C35.6 45.1744 36.5333 44.6411 35.8667 43.5744C35.3333 42.6411 35.4667 42.5077 36.5333 43.0411C37.3333 43.5744 37.7333 44.6411 37.3333 45.3077C36.8 45.9744 37.0667 46.5077 37.7333 46.5077C38.5333 46.5077 39.3333 45.5744 39.8667 44.5077C40.9333 41.5744 23.3333 36.3744 19.4667 38.5077C17.8667 39.3077 16.6667 40.5077 16.6667 41.1744C16.6667 43.1744 19.0667 43.9744 20.1333 42.3744C20.6667 41.3077 20.5333 41.1744 19.6 41.7077C18.6667 42.2411 18 42.1077 18 41.3077C18 39.7077 22.9333 38.1077 24.6667 39.1744C26.4 40.2411 26.4 43.4411 24.6667 44.5077C24 44.9077 23.7333 44.5077 24.1333 43.4411C24.5333 42.3744 24.2667 41.0411 23.4667 40.5077C22.6667 40.1077 22 40.6411 22 41.7077C22 43.7077 20.4 44.5077 17.4667 43.9744C16.9333 43.8411 15.7333 44.2411 14.8 44.9077C14 45.5744 11.7333 46.5077 9.8667 47.0411C7.8667 47.4411 6 48.7744 5.4667 49.8411C4.5333 52.3744 7.3333 51.8411 9.7333 49.1744C11.3333 47.4411 11.4667 47.5744 10.5333 49.8411C10 51.3077 9.6 54.1077 9.6 56.1077C9.6 58.7744 9.2 59.1744 8 58.1077C7.0667 57.1744 6.6667 55.5744 7.0667 54.5077C7.6 52.9077 7.3333 52.7744 5.8667 54.2411C4.4 55.5744 4.4 56.3744 5.8667 58.6411C7.2 61.0411 7.2 61.3077 5.7333 60.9077C3.0667 59.9744 2.8 50.6411 5.3333 47.8411C7.0667 45.8411 7.2 45.1744 5.7333 44.2411C3.8667 43.0411 3.2 33.1744 4.9333 33.1744C5.6 33.1744 5.4667 31.9744 4.6667 30.6411C2.8 27.0411 2.9333 25.1744 5.3333 25.1744C7.2 25.1744 7.2 24.7744 5.3333 21.9744C2.1333 17.1744 3.2 10.2411 7.3333 8.24109C9.2 7.30768 9.8667 6.50768 8.9333 6.50768C8 6.50768 5.8667 7.17439 4.2667 8.10769C1.6 9.44108 1.4667 9.44109 3.0667 7.44109C4.5333 5.70769 7.0667 5.44109 16.4 5.84109C22.8 6.10769 29.6 6.90769 31.7333 7.70769ZM34 42.5077C34 43.1744 32.8 43.8411 31.4667 43.8411C30 43.8411 28.4 43.1744 28 42.5077C27.4667 41.7077 28.6667 41.1744 30.5333 41.1744C32.4 41.1744 34 41.7077 34 42.5077ZM34.9333 49.9744C39.4667 52.7744 43.3333 59.7077 43.3333 64.7744C43.3333 71.5744 38.5333 76.1077 30.2667 76.9077C21.6 77.7077 17.4667 75.1744 13.8667 67.0411C11.6 62.1077 11.4667 60.3744 12.6667 55.8411C14.5333 48.6411 18.4 46.1077 25.8667 47.0411C29.2 47.5744 33.2 48.7744 34.9333 49.9744ZM44.6667 48.9077C45.7333 50.2411 47.4667 52.2411 48.4 53.4411C51.6 57.3077 51.7333 66.6411 48.8 69.7077C47.3333 71.3077 46 73.0411 45.7333 73.8411C45.4667 74.5077 44.6667 75.0411 43.8667 74.7744C43.0667 74.6411 41.0667 75.9744 39.3333 77.8411C36.9333 80.3744 34.8 81.1741 30.1333 81.3081C24.6667 81.4411 24.4 81.5741 28 82.5081L32 83.4411L28.2667 84.9081C23.2 87.0411 23.0667 87.0411 23.6 83.4411C23.8667 81.0411 25.0667 80.3744 30.1333 79.8411C35.0667 79.3077 37.6 77.9744 43.2 72.9077C50.5333 66.3744 50.5333 65.8411 45.4667 59.9744C43.8667 58.2411 43.4667 57.1744 44.4 57.7077C46.8 59.0411 46.4 56.6411 43.3333 51.1744C40.5333 46.2411 41.3333 44.9077 44.6667 48.9077ZM53.6 60.1077C53.2 61.1744 52.8 60.7744 52.8 59.3077C52.6667 57.8411 53.0667 57.0411 53.4667 57.5744C53.8667 57.9744 54 59.1744 53.6 60.1077ZM9.6 63.0411C9.6 64.1077 8.6667 64.5077 7.2 64.2411C6 63.8411 4.5333 64.2411 4.1333 65.0411C2.5333 67.4411 5.7333 71.4411 9.7333 72.2411C11.8667 72.6411 15.6 74.6411 17.8667 76.6411C21.3333 79.5744 22.1333 81.0411 21.6 84.2411C21.0667 87.9741 21.3333 88.1081 25.2 87.3081C31.7333 85.9741 43.4667 79.8411 42.5333 78.2411C41.8667 77.3077 42.2667 77.1744 43.2 77.8411C44.2667 78.3744 46.5333 77.3077 49.0667 75.0411L53.3333 71.1744L48.9333 75.9744C39.3333 86.3741 14.5333 93.8411 6.6667 88.6411C4.2667 87.0411 3.3333 85.3081 3.3333 81.9741C3.3333 77.3077 4.9333 75.1744 9.3333 74.1077C11.7333 73.5744 11.7333 73.4411 9.0667 73.3077C5.4667 73.1744 1.6 67.8411 2.8 64.7744C3.4667 62.9077 4.9333 62.1077 8.8 61.3077C9.2 61.3077 9.6 61.9744 9.6 63.0411ZM6.5333 66.7744C5.8667 67.8411 6.2667 67.9744 7.7333 67.4411C8.9333 67.0411 10.2667 67.1744 10.6667 67.9744C11.2 68.6411 10.5333 69.5744 9.3333 70.1077C8 70.5077 6.5333 70.1077 5.8667 69.0411C4.2667 66.5077 4.4 65.1744 6.1333 65.1744C6.8 65.1744 7.0667 65.8411 6.5333 66.7744ZM9.3333 91.8411C11.0667 92.6411 11.3333 93.0411 10 93.0411C8.9333 93.0411 7.0667 92.5081 6 91.8411C3.6 90.2411 5.7333 90.2411 9.3333 91.8411Z" fill="#804000"/>
<path d="M10.8001 9.44131C11.4668 10.3747 11.0668 10.6413 9.73339 10.108C4.93339 8.37471 2.8001 16.6413 6.6668 22.108C8.5334 24.7747 8.53339 25.1747 6.40009 26.508C4.13339 27.9747 4.13339 27.9747 6.5334 27.308C8.5334 26.6413 8.80009 27.0413 8.26679 29.0413C7.86679 30.6413 8.40009 31.9747 9.60009 32.3747C10.8001 32.908 11.0668 32.6413 10.5334 31.708C10.0001 30.7747 10.4001 30.3747 11.4668 30.7747C12.5334 31.1747 13.2001 32.2413 12.9334 33.1747C12.6668 34.2413 13.3334 34.508 14.6668 33.9747C15.8668 33.5747 19.3334 33.1747 22.4001 33.1747C26.6668 33.1747 27.4668 32.7747 26.0001 31.708C24.5334 30.7747 25.2001 30.6413 28.5334 31.1747C32.0001 31.9747 32.8001 31.708 32.4001 30.3747C32.0001 29.308 32.5334 26.908 33.6001 24.7747C35.0668 21.8413 35.0668 20.6413 33.7334 18.108C32.8001 16.508 32.1334 14.6413 32.0001 14.108C32.0001 13.5747 31.0668 12.508 30.0001 11.8413C27.2001 10.108 29.6001 10.2413 32.9334 11.9747C36.8001 14.108 39.6001 21.5747 38.0001 25.8413C37.3334 27.708 36.4001 29.1747 35.8668 29.1747C35.4668 29.1747 35.3334 28.2413 35.8668 27.1747C36.2668 26.108 36.0001 25.1747 35.3334 25.1747C34.5334 25.1747 34.0001 26.3747 34.0001 27.8413C34.0001 29.308 34.4001 30.508 35.0668 30.508C38.0001 30.3747 39.8668 27.308 40.6668 21.308C41.0668 17.708 41.0668 14.908 40.5334 15.1747C40.0001 15.5747 38.8001 14.7747 37.8668 13.5747C34.8001 9.97471 27.8668 7.84131 18.6668 7.84131C12.2668 7.84131 10.1334 8.24131 10.8001 9.44131ZM7.46679 14.6413C6.26679 17.5747 6.13339 17.5747 6.13339 15.0413C6.00009 13.5747 6.40009 11.8413 6.93339 11.4413C8.53339 9.84131 8.80009 11.4413 7.46679 14.6413ZM25.8668 12.508C30.0001 14.508 31.3334 16.908 31.3334 21.708C31.3334 25.9747 27.2001 29.308 20.8001 30.108C16.2668 30.7747 15.0668 30.3747 12.1334 27.1747C2.93339 17.308 13.6001 6.10801 25.8668 12.508Z" fill="#804000"/>
<path d="M36.0004 22.5077C35.6004 23.1743 35.8671 23.841 36.5338 23.841C37.3338 23.841 38.0004 23.1743 38.0004 22.5077C38.0004 21.7077 37.7338 21.1743 37.4671 21.1743C37.0671 21.1743 36.4004 21.7077 36.0004 22.5077Z" fill="#804000"/>
<path d="M8.39961 35.3078C11.7329 37.7078 12.1329 41.0411 9.7329 43.7078C8.2662 45.1745 8.66621 45.3078 11.3329 44.5078C15.3329 43.3078 14.7996 43.8411 15.8662 39.7078C16.5329 36.6411 16.1329 35.9745 13.4662 35.3078C11.7329 34.9078 9.1996 34.2411 7.7329 33.7078C5.8662 33.1745 5.99961 33.5745 8.39961 35.3078Z" fill="#804000"/>
<path d="M5.60042 38.5077C6.40042 39.441 6.80042 41.041 6.40042 41.9743C5.86712 43.3077 6.40042 43.5743 7.86712 43.041C10.8004 41.841 10.0004 37.9743 6.66712 37.441C4.53382 37.041 4.40042 37.3077 5.60042 38.5077Z" fill="#804000"/>
<path d="M47.333 60.5078C48.2663 61.7078 49.333 62.2411 49.5997 61.9745C50.533 61.0411 48.6663 58.5078 47.0663 58.5078C46.2663 58.5078 46.2663 59.3078 47.333 60.5078Z" fill="#804000"/>
<path d="M6.26699 77.4411C5.33369 78.3745 4.66699 80.7745 4.66699 82.7742C4.66699 87.0412 8.40029 89.1742 15.867 89.1742C19.2003 89.1742 20.1337 88.6412 20.267 86.5082C20.4003 84.7742 20.0003 84.1082 19.067 84.6412C18.0003 85.3082 17.867 84.7742 18.4003 83.3082C20.267 78.3745 10.267 73.4411 6.26699 77.4411ZM15.067 79.0411C17.6003 80.6411 16.9337 83.8412 13.7337 85.3082C11.067 86.3742 11.2003 86.5082 14.667 85.8412C17.7337 85.1742 18.267 85.3082 17.067 86.5082C16.1337 87.5742 14.0003 87.7082 11.467 87.1742C7.73369 86.3742 7.33369 85.8412 7.60029 81.8412C7.86699 78.2411 8.40029 77.5745 10.667 77.8411C12.267 77.9745 14.267 78.5078 15.067 79.0411Z" fill="#804000"/>
<path d="M8.66699 82.5084C8.66699 85.5744 9.20029 85.7084 12.8003 83.7084C15.867 82.1084 14.9337 79.8413 11.2003 79.8413C9.60029 79.8413 8.66699 80.7746 8.66699 82.5084ZM12.667 81.7084C12.667 82.1084 12.1337 82.7744 11.3337 83.1744C10.667 83.5744 10.0003 83.3084 10.0003 82.6414C10.0003 81.8414 10.667 81.1744 11.3337 81.1744C12.1337 81.1744 12.667 81.4414 12.667 81.7084Z" fill="#804000"/>
<path d="M86.6671 6.24108C78.2671 11.5744 73.6001 20.3744 71.3331 35.5744C69.3334 47.9745 71.2001 60.2411 76.6671 71.3078C81.3331 80.9082 86.9331 85.1742 94.6671 85.1742C98.9331 85.1742 100.667 84.2412 105.467 79.1745C113.867 70.5078 117.2 58.7745 116.4 41.0411C115.867 29.7078 115.2 26.7744 111.467 19.3078C104.933 5.97438 95.2001 0.907778 86.6671 6.24108ZM97.0671 8.24108C96.6671 8.90778 97.3331 9.17438 98.4001 8.90778C100.8 8.50778 110.267 18.3744 109.2 20.1078C108.8 20.7744 107.333 20.9078 106 20.5078C104.667 20.1078 103.2 20.3744 102.8 21.0411C101.733 22.6411 104.667 27.8411 106.533 27.8411C107.2 27.8411 106.667 26.6411 105.333 25.1744C102.533 22.1078 103.6 19.9744 106.667 22.5078C109.333 24.6411 109.2 29.1744 106.533 29.1744C105.467 29.1744 104.933 29.7078 105.333 30.5078C106.8 32.9078 109.467 31.8411 110.933 28.1078C111.733 26.1078 112.4 25.4411 112.533 26.6411C112.8 29.9744 109.333 33.7078 106.8 32.7744C104.133 31.7078 100.133 23.0411 101.2 20.3744C101.6 19.3078 103.333 18.5078 104.933 18.3744H108L104.933 17.0411C103.2 16.3744 99.3331 16.2411 96.2671 16.7744C93.2001 17.3078 90.1331 17.5744 89.6001 17.4411C88.9331 17.3078 88.8001 17.7078 89.3331 18.5078C89.7331 19.1744 89.3331 19.5744 88.4001 19.4411C87.4671 19.1744 87.0671 19.1744 87.4671 19.4411C87.8671 19.7078 88.0001 21.4411 87.6001 23.1744C87.3331 25.0411 86.5331 26.1078 85.8671 25.7078C85.2001 25.3078 84.6671 25.7078 84.6671 26.5078C84.6671 27.3078 84.0001 27.5744 83.0671 27.0411C82.1331 26.5078 82.0001 26.6411 82.5331 27.5744C83.0671 28.3744 82.6671 33.0411 81.7331 37.9744C80.6671 44.2411 80.5331 47.1744 81.4671 47.4411C82.2671 47.7078 82.6671 49.3078 82.4001 51.0411C82.0001 52.7745 83.0671 57.0411 84.5331 60.5078C86.1331 64.1078 87.0671 67.1745 86.6671 67.5745C86.2671 67.9745 86.0001 67.5745 86.0001 66.6411C86.0001 65.7078 85.3331 65.4411 84.4001 65.9745C83.4671 66.5078 83.3331 66.3745 83.8671 65.4411C84.5331 64.3745 84.0001 64.1078 82.5331 64.7745C80.8001 65.4411 80.6671 65.8411 81.8671 66.2411C83.0671 66.6411 83.2001 67.1745 82.1331 67.7078C81.2001 68.3745 81.2001 69.9745 81.8671 72.5078C82.5331 74.7745 83.2001 75.7078 83.2001 74.6411C83.3331 73.1745 83.7331 73.1745 85.3331 74.5078C86.5331 75.5745 87.3331 75.7078 87.3331 74.7745C87.3331 73.9745 86.1331 72.5078 84.5331 71.4411C82.5331 69.9745 82.2671 69.1745 83.4671 68.3745C84.5331 67.8411 86.2671 68.7745 88.2671 71.0411C92.0001 75.3078 92.0001 76.2411 89.0671 79.3078C86.9331 81.3082 86.5331 81.3082 82.9331 77.1745C80.6671 74.5078 79.3331 71.8411 79.6001 69.8411C79.7331 68.1078 78.9331 65.7078 77.7331 64.2411C75.0671 61.3078 72.0001 53.9745 74.0001 55.1745C74.9331 55.8411 75.0671 54.7745 74.4001 52.2411C72.6671 46.1078 73.7331 28.7744 75.7331 30.1078C76.2671 30.3744 76.4001 29.1744 76.0001 27.4411C75.3331 24.7744 76.1331 23.0411 79.8671 19.0411C82.5331 16.2411 84.6671 14.5078 84.6671 15.3078C84.6671 15.9744 84.0001 17.3078 83.0671 18.2411C80.5331 20.7744 82.5331 20.1078 88.8001 16.5078C92.9331 14.1078 93.6001 13.3078 91.2001 13.8411C86.8001 14.9078 83.6001 11.7078 86.5331 9.30778C88.1331 7.97438 88.2671 8.10778 87.7331 10.3744C87.2001 12.2411 87.6001 13.1744 88.9331 13.1744C90.4001 13.1744 90.8001 12.2411 90.4001 9.84108C89.7331 6.90778 90.1331 6.64108 93.7331 6.90778C95.8671 7.04108 97.4671 7.70778 97.0671 8.24108ZM99.2001 25.8411C100.4 29.0411 101.2 36.6411 101.2 44.5078C101.333 55.5745 100.8 58.7745 98.5331 63.1745C95.0671 69.7078 92.2671 70.5078 89.0671 65.7078C85.6001 60.3745 85.6001 32.2411 89.0671 24.7744C92.2671 17.8411 96.5331 18.2411 99.2001 25.8411ZM85.6001 30.7744C85.2001 31.8411 84.8001 31.4411 84.8001 29.9744C84.6671 28.5078 85.0671 27.7078 85.4671 28.2411C85.8671 28.6411 86.0001 29.8411 85.6001 30.7744ZM112.133 37.7078C110.533 40.2411 110.4 41.9744 111.2 44.3744C112.267 47.0411 112 47.7078 109.867 48.2411C107.733 48.7745 107.333 48.2411 107.467 44.7744C107.6 42.3744 107.2 39.0411 106.8 37.1744L105.867 33.8411L107.733 37.0411C108.933 39.0411 110 39.7078 110.533 38.6411C111.067 37.8411 110.8 37.1744 110.133 37.1744C109.333 37.1744 108.667 36.6411 108.667 35.8411C108.667 35.1744 109.6 34.9078 110.667 35.3078C111.733 35.8411 112.667 35.4411 112.667 34.3744C112.667 33.4411 113.067 33.1744 113.467 33.5744C114 34.1078 113.333 35.9744 112.133 37.7078ZM84.2671 37.4411C83.8671 38.5078 83.4671 38.1078 83.4671 36.6411C83.3331 35.1744 83.7331 34.3744 84.1331 34.9078C84.5331 35.3078 84.6671 36.5078 84.2671 37.4411ZM106 42.5078C106 44.3744 105.467 46.5078 104.933 47.4411C104.4 48.2411 104 45.9744 104 42.5078C104 39.0411 104.4 36.7744 104.933 37.5744C105.467 38.5078 106 40.6411 106 42.5078ZM114.933 44.7744C114.533 46.1078 114.267 45.0411 114.267 42.5078C114.267 39.9744 114.533 38.9078 114.933 40.1078C115.2 41.4411 115.2 43.5744 114.933 44.7744ZM112.4 50.9078C113.467 52.2411 113.067 52.6411 110.267 52.5078C107.467 52.5078 106.133 53.5745 104.4 57.1745C102.933 60.1078 102 60.9078 102 59.4411C102 57.3078 108.667 49.1745 110.4 49.1745C110.8 49.1745 111.6 49.9745 112.4 50.9078ZM111.6 59.7078C111.867 61.9745 111.867 63.5745 111.467 63.4411C110 63.0411 104.133 67.8411 105.067 68.6411C105.6 69.1745 107.2 68.5078 108.533 67.3078C111.067 65.0411 111.067 65.0411 110.8 67.4411C110.533 68.7745 109.867 69.8411 109.2 69.9745C108.533 69.9745 106.267 70.7745 104.267 71.5745C99.6001 73.5745 95.3331 73.5745 92.6671 71.7078C91.2001 70.6411 91.7331 70.5078 94.9331 71.1745C97.2001 71.5745 99.4671 71.4411 99.8671 70.6411C100.4 69.8411 101.733 69.5745 103.067 69.9745C104.4 70.5078 104.8 70.2411 104 69.5745C103.333 69.0411 102.533 67.1745 102.4 65.7078C102.133 63.3078 102.667 62.9078 104.8 63.4411C106.4 63.9745 108.133 63.4411 108.8 62.3745C110.4 59.8411 110.267 57.1745 108.667 57.1745C108 57.1745 107.733 57.9745 108.133 59.0411C108.933 61.1745 106.533 63.1745 105.467 61.3078C104.133 59.1745 106.133 55.8411 108.667 55.8411C110.267 55.8411 111.2 57.0411 111.6 59.7078ZM99.4671 68.2411C98.1331 69.4411 98.0001 69.3078 98.8001 67.4411C99.2001 66.1078 100 65.4411 100.4 65.8411C100.8 66.2411 100.4 67.3078 99.4671 68.2411ZM107.2 74.2411C105.2 77.4411 97.7331 82.5082 95.2001 82.5082C94.1331 82.3742 95.4671 81.4412 98.0001 80.2411C100.8 79.0411 102 77.9745 100.933 77.5745C99.8671 77.1745 98.4001 77.5745 97.6001 78.3745C96.8001 79.1745 95.0671 79.8411 93.7331 79.8411C91.6001 79.8411 91.4671 79.4411 92.6671 77.1745C93.6001 75.4411 95.3331 74.5078 97.7331 74.6411C102.133 74.7745 105.6 73.9745 106.8 72.7745C108.533 71.0411 108.667 71.8411 107.2 74.2411Z" fill="#804000"/>
<path d="M91.333 10.3743C91.333 11.7076 96.133 13.1743 97.2 12.241C97.6 11.841 97.6 10.9076 97.2 10.3743C96.266 8.77432 91.333 8.77432 91.333 10.3743Z" fill="#804000"/>
<path d="M99.7343 11.7079C99.8673 13.1746 100.8 14.5079 101.734 14.5079C103.334 14.5079 103.334 14.1079 101.867 12.1079C100.934 10.9079 100 9.57461 99.7343 9.30791C99.6003 9.04131 99.6003 10.1079 99.7343 11.7079Z" fill="#804000"/>
<path d="M79.3327 21.1744C78.2667 21.8411 77.3327 24.3744 77.1997 26.7744C76.9327 29.1744 76.1327 33.8411 75.1997 37.0411C73.9997 41.5744 73.8667 44.2411 75.0667 48.6411C75.9997 51.8411 76.2667 55.3077 75.8667 56.3744C75.1997 58.2411 79.1997 65.8411 80.2667 64.6411C80.6667 64.3744 79.8667 62.5077 78.5327 60.6411C77.3327 58.6411 76.6667 56.7744 77.1997 56.2411C77.5997 55.8411 77.9997 56.2411 77.9997 57.3077C77.9997 58.9077 78.2667 58.7744 79.4667 57.1744C80.5327 55.5744 80.6667 55.7077 79.9997 57.9744C79.5997 59.7077 80.1327 61.4411 81.3327 62.5077C82.9327 63.8411 83.3327 63.8411 83.3327 61.9744C83.3327 60.7744 82.6667 59.8411 81.8667 59.8411C81.1997 59.8411 80.7997 59.3077 81.1997 58.6411C81.5997 58.1077 81.0667 54.2411 80.1327 50.3744C76.9327 37.9744 76.5327 33.4411 78.1327 32.5077C79.1997 31.8411 79.3327 32.3744 78.6667 34.3744C78.1327 35.9744 78.3997 37.1744 79.1997 37.1744C80.6667 37.1744 81.3327 33.5744 80.7997 28.6411C80.6667 27.3077 81.8667 25.3077 83.3327 24.2411C84.7997 23.1744 85.9997 21.7077 85.9997 20.9077C85.9997 20.1077 84.5327 20.7744 82.6667 22.5077C79.3327 25.5744 77.7327 24.6411 80.9327 21.4411C82.7997 19.5744 82.1327 19.4411 79.3327 21.1744ZM78.5327 51.1744C78.9327 54.5077 78.9327 55.5744 78.1327 53.8411C76.5327 49.9744 75.1997 41.4411 76.5327 43.8411C77.1997 44.9077 77.9997 48.2411 78.5327 51.1744Z" fill="#804000"/>
<path d="M88.6659 75.7078C88.6659 76.7745 87.5999 77.1745 85.9999 76.7745C84.5329 76.3745 83.5999 76.6412 84.1329 77.3078C84.5329 77.9745 85.5999 78.5078 86.6659 78.5078C88.7999 78.5078 90.6659 76.1078 89.4659 74.9078C89.0659 74.3745 88.6659 74.7745 88.6659 75.7078Z" fill="#804000"/>
<path d="M94.667 77.1746C94.267 77.9746 94.8 78.108 95.867 77.708C98.267 76.7746 98.667 75.8413 96.8 75.8413C96 75.8413 95.067 76.3746 94.667 77.1746Z" fill="#804000"/>
<path d="M231.734 11.8409C232.267 14.2409 232.667 16.6409 232.667 17.3076C232.667 17.9743 236.134 18.5076 240.4 18.5076C255.334 18.5076 267.6 24.2409 269.467 32.1076L270.267 35.8409H260.134H250V41.5743V47.3076L260.8 47.1743L271.6 47.0409L270.8 51.5743C269.067 62.3743 261.2 67.3076 243.2 68.6409L232 69.5743L232.134 74.3743C232.267 78.7743 232.667 79.1743 236.534 79.5743C242.134 80.1076 261.067 76.3743 268.134 73.3076C285.334 65.7076 287.734 33.4409 272.267 17.4409C267.067 12.1076 258.534 9.44092 242.8 8.24092L230.934 7.44092L231.734 11.8409ZM237.6 12.6409C239.067 9.97432 242 10.7743 242 13.9743C242 17.0409 234.8 15.5743 234.4 12.3743C234 9.97432 234.134 9.97432 235.067 12.5076C236.134 14.9076 236.267 14.9076 237.6 12.6409ZM264.4 15.4409C268.267 17.3076 271.2 19.1743 270.8 19.4409C270.534 19.7076 272 21.8409 274 24.1076C278.534 29.0409 279.734 32.7743 277.067 33.7076C275.334 34.3743 275.467 34.9076 277.6 36.9076C278.934 38.1076 279.467 38.7743 278.8 38.1076C276.534 36.5076 273.2 37.0409 269.734 39.8409C267.867 41.1743 265.867 41.9743 265.334 41.4409C264.667 40.9076 264.667 41.3076 265.2 42.2409C266.134 43.7076 266.667 43.5743 268.534 41.9743C271.067 39.7076 273.467 39.1743 274.4 40.7743C274.667 41.4409 274.667 41.0409 274.534 40.1076C274.267 39.3076 274.8 38.5076 275.467 38.5076C276.4 38.5076 276.667 39.9743 276.4 41.7076C275.867 43.9743 276.267 44.7743 277.6 44.2409C278.534 43.8409 278.934 43.0409 278.534 42.3743C278.134 41.7076 278.4 41.1743 279.067 41.1743C279.734 41.1743 280.134 43.4409 279.867 46.1076C279.467 53.3076 279.467 53.4409 278.134 52.6409C277.467 52.2409 277.2 50.7743 277.6 49.4409C278 47.8409 277.467 46.9076 276.267 46.9076C275.334 46.9076 274.4 47.7076 274.4 48.6409C274.4 49.5743 275.067 49.9743 275.734 49.5743C276.534 49.1743 276.667 49.4409 276.134 50.2409C275.734 51.0409 276.134 52.5076 277.2 53.5743C278.4 54.6409 278.667 56.1076 278 57.3076C276.934 58.7743 276.667 58.7743 276.134 57.1743C274.4 51.7076 274.134 51.7076 274.8 57.4409C275.467 62.5076 275.067 64.1076 272.934 66.2409C269.867 69.3076 262.134 71.8409 255.734 71.8409C253.467 71.8409 251.2 72.2409 250.8 72.9076C250.534 73.4409 252.667 73.7076 255.734 73.5743L261.334 73.3076L256 74.3743C253.067 75.0409 250.134 75.3076 249.6 74.9076C249.067 74.5076 247.6 75.0409 246.534 75.9743C245.467 76.7743 244.267 77.1743 243.734 76.6409C243.334 76.2409 243.734 75.8409 244.8 75.8409C246.4 75.8409 246.4 75.5743 244.667 74.5076C243.467 73.8409 242.4 73.8409 241.867 74.6409C241.467 75.3076 239.467 76.2409 237.6 76.6409C234.667 77.0409 234 76.7743 234 74.6409C234 73.1743 234.534 71.7076 235.2 71.3076C235.867 70.7743 236.134 71.8409 235.734 73.4409L235.067 76.5076L237.2 73.4409C239.067 71.0409 240 70.7743 242.267 71.9743C244.134 73.0409 245.867 73.0409 247.867 72.1076C249.334 71.3076 253.734 70.3743 257.6 69.9743C261.467 69.5743 266 68.5076 267.6 67.5743C269.334 66.6409 271.2 66.1076 271.734 66.2409C272.4 66.3743 272.534 65.9743 272 65.1743C271.467 64.2409 270.134 64.5076 268.267 65.8409C264.934 68.1076 263.334 68.3743 263.334 66.5076C263.334 65.7076 264.534 65.1743 266 65.1743C267.734 65.1743 269.334 63.5743 270.667 60.2409C273.067 54.6409 274 45.3076 272.4 44.3743C271.734 43.9743 271.734 42.9076 272.267 42.1076C272.667 41.1743 272 41.4409 270.534 42.7743C268.8 44.2409 265.867 44.9076 260.667 44.7743C254.134 44.5076 253.334 44.1076 252.934 41.4409C252.667 39.8409 253.067 38.5076 253.867 38.5076C254.534 38.5076 254.934 39.7076 254.667 41.3076C254.267 43.3076 254.534 43.7076 255.734 42.9076C256.667 42.2409 258.667 41.8409 260.267 41.9743C261.867 41.9743 262.934 41.5743 262.534 41.0409C262.134 40.3743 260.4 40.1076 258.667 40.3743C256.667 40.7743 255.734 40.3743 256.134 39.4409C256.4 38.5076 258.134 37.8409 259.867 37.8409C261.6 37.8409 262.8 38.3743 262.4 38.9076C261.467 40.3743 267.867 39.0409 271.067 37.0409C273.6 35.4409 273.6 35.1743 271.734 32.2409C270.534 30.5076 270 28.7743 270.534 28.2409C270.934 27.8409 271.334 28.1076 271.334 29.0409C271.334 30.2409 271.867 30.2409 273.2 28.9076C275.334 26.9076 274.667 24.6409 272.4 25.9743C271.6 26.5076 271.334 26.2409 271.734 25.5743C272.267 24.7743 271.734 23.4409 270.667 22.5076C269.6 21.5743 269.067 20.2409 269.6 19.4409C270 18.7743 269.734 18.5076 268.934 18.9076C267.467 19.9743 267.467 22.1076 269.2 25.1743C269.867 26.2409 268.8 25.5743 266.8 23.4409C264.8 21.4409 261.867 19.8409 260.267 19.8409C257.467 19.7076 257.467 19.5743 259.734 17.9743C261.867 16.2409 261.867 16.1076 259.867 15.3076C258.534 14.7743 256.934 15.0409 256.134 15.8409C255.067 16.9076 255.467 17.0409 257.334 16.5076C259.467 15.8409 259.6 15.8409 258 16.9076C256.667 17.9743 255.6 17.9743 254.4 16.9076C253.467 16.2409 251.334 15.8409 249.6 16.3743C247.334 16.9076 246.4 16.5076 246.4 15.0409C246.4 13.4409 247.467 13.1743 251.2 13.7076L256 14.3743L251.334 12.5076L246.667 10.6409L252 11.3076C254.934 11.8409 260.534 13.7076 264.4 15.4409ZM244.267 14.7743C243.867 15.8409 243.467 15.4409 243.467 13.9743C243.334 12.5076 243.734 11.7076 244.134 12.2409C244.534 12.6409 244.667 13.8409 244.267 14.7743Z" fill="#804000"/>
<path d="M263.333 18.5077C263.333 19.1743 264 19.841 264.8 19.841C265.466 19.841 265.733 19.1743 265.333 18.5077C264.933 17.7077 264.266 17.1743 263.866 17.1743C263.6 17.1743 263.333 17.7077 263.333 18.5077Z" fill="#804000"/>
<path d="M275.2 28.1077C274.4 30.9077 274.533 33.1744 275.333 33.1744C276 33.1744 276.4 31.9744 276.266 30.5077C276.133 28.241 275.6 27.041 275.2 28.1077Z" fill="#804000"/>
<path d="M272.934 61.1746C272.934 63.0413 273.2 63.708 273.6 62.7746C273.867 61.9746 273.867 60.3746 273.6 59.4413C273.2 58.6413 272.934 59.308 272.934 61.1746Z" fill="#804000"/>
<path d="M238.666 73.308C238.133 74.108 238 74.908 238.4 75.308C238.666 75.708 239.333 75.0413 239.733 73.8413C240.666 71.5747 239.866 71.1747 238.666 73.308Z" fill="#804000"/>
<path d="M150.666 38.3743C152.133 39.041 154.666 39.7076 156.266 39.7076C157.866 39.841 160 40.641 160.933 41.5743C161.866 42.641 163.6 43.7076 164.666 44.1076C166.133 44.5076 165.333 45.5743 162 47.5743C155.466 51.5743 152.266 51.3076 157.066 47.1743C159.066 45.3076 160.4 43.841 159.866 43.841C159.333 43.841 157.466 45.041 155.866 46.641L153.066 49.3076L150.133 44.9076C148.666 42.5076 147.333 41.041 147.333 41.7076C147.333 42.5076 148.666 44.9076 150.266 47.3076C152.8 50.9076 154.4 51.841 159.733 52.5076C163.333 53.041 166.533 53.041 166.933 52.641C167.466 52.241 166.666 51.841 165.2 51.841C162.8 51.7076 162.8 51.7076 165.066 50.3743C168.266 48.5076 174.4 49.9743 176.4 53.1743C178.266 56.241 178.133 56.3743 173.466 54.5076C171.6 53.841 170 53.7076 170 54.3743C170 55.041 171.733 55.841 173.866 56.241C176.266 56.7743 178.666 58.641 180.4 61.441C183.6 66.7743 185.066 77.841 182.666 79.841C181.866 80.5076 180.8 80.908 180.533 80.641C180.266 80.241 179.333 81.574 178.4 83.308C177.066 86.108 177.2 86.908 179.333 88.108C181.466 89.574 181.466 89.841 179.466 91.841C175.6 95.841 171.6 95.974 168.533 92.108L165.733 88.508L170.266 87.708L174.666 86.908L169.333 86.641C166.4 86.641 161.866 85.174 159.333 83.574C156.8 81.974 153.466 80.5076 152 80.3743C150.533 80.241 147.733 79.841 145.733 79.441C143.6 79.041 142 79.1743 142 79.7076C142 80.241 140.4 81.441 138.533 82.241C136.666 83.174 135.466 83.308 136 82.508C136.4 81.841 136.133 81.174 135.466 81.174C134.666 81.174 134 81.708 134 82.241C134 82.908 132.133 83.041 129.866 82.774C126.933 82.374 125.866 82.641 126.533 83.708C127.066 84.508 126.933 85.174 126.133 85.174C125.466 85.174 124.533 84.374 124.266 83.441C123.733 82.108 123.466 82.108 123.466 83.441C123.333 85.708 117.733 85.574 114.666 83.308C112.266 81.574 112.266 81.308 117.066 76.5076C121.733 71.841 125.733 70.7743 122 75.1743C121.066 76.241 120.8 77.1743 121.333 77.1743C121.866 77.1743 123.066 76.3743 123.866 75.3076C125.066 73.7076 126.8 73.7076 133.733 74.7743C138.933 75.7076 142.666 75.7076 143.333 75.041C144.133 74.241 143.733 73.7076 142.266 73.5743C141.066 73.441 135.6 72.241 130.266 71.041C120.8 68.7743 120.533 68.7743 116.933 71.441C111.733 75.1743 107.6 83.308 109.6 85.308C112.533 88.241 124.8 88.241 137.733 85.308C149.733 82.641 150.133 82.641 155.733 85.041C159.466 86.641 164 90.641 169.333 96.908C173.733 102.108 177.6 106.108 177.866 105.841C178.133 105.574 177.6 103.441 176.8 101.041C174.933 95.841 175.333 95.441 179.866 97.041C183.733 98.508 184.8 96.508 181.733 93.441C179.866 91.574 181.2 91.441 187.066 93.041C193.2 94.908 192.4 92.908 185.2 88.908L179.066 85.574L183.2 82.108C186.8 79.1743 187.866 78.9076 191.6 79.9743C198.533 81.841 200 81.574 197.866 78.9076C196.266 76.9076 196.266 76.7743 198.4 77.5743C200.133 78.241 200.666 77.9743 200.266 76.9076C200 75.9743 198.133 75.3076 196.133 75.441C194.266 75.5743 192.666 75.1743 192.666 74.3743C192.666 73.7076 193.333 73.3076 194.266 73.441C195.066 73.7076 196.266 72.3743 196.8 70.5076C198.133 65.841 198.133 48.9076 196.8 46.7743C196.133 45.7076 196 47.7076 196.4 51.7076C197.066 59.5743 195.466 74.241 194.133 71.9743C193.466 71.041 192.533 71.5743 191.333 73.841C188.533 79.1743 186 78.1076 186 71.441C186 68.3743 185.066 64.3743 184 62.5076C182.933 60.641 181.2 56.9076 180 54.241C178.266 50.5076 176.133 48.5076 170.4 45.841C164.8 43.041 163.466 41.841 164.8 40.9076C166.266 39.841 166.133 39.7076 164.533 40.241C163.333 40.641 161.866 40.5076 161.2 39.841C160.533 39.3076 157.333 38.3743 154 37.9743C149.866 37.441 148.8 37.5743 150.666 38.3743Z" fill="#804000"/>
<path d="M143.467 41.9743C143.467 43.441 143.867 43.841 144.267 42.7743C144.667 41.841 144.533 40.641 144.133 40.241C143.733 39.7077 143.333 40.5077 143.467 41.9743Z" fill="#804000"/>
<path d="M328.134 55.5744C327.867 56.1078 328 58.6411 328.667 61.1744L329.734 65.8411L329.867 60.1078C330 54.6411 329.467 53.4411 328.134 55.5744Z" fill="#804000"/>
<path d="M138.666 78.5077C139.066 79.1743 139.733 79.841 140.133 79.841C140.4 79.841 140.666 79.1743 140.666 78.5077C140.666 77.7077 140 77.1743 139.2 77.1743C138.533 77.1743 138.266 77.7077 138.666 78.5077Z" fill="#804000"/>
<path d="M118.666 79.8411C118.266 80.5078 118.8 81.1742 120 81.1742C121.2 81.1742 121.733 80.5078 121.333 79.8411C120.933 79.0411 120.266 78.5078 120 78.5078C119.733 78.5078 119.066 79.0411 118.666 79.8411Z" fill="#804000"/>
<path d="M128.4 80.7746C129.2 81.0413 130.8 81.0413 131.734 80.7746C132.534 80.3746 131.867 80.1079 130 80.1079C128.134 80.1079 127.467 80.3746 128.4 80.7746Z" fill="#804000"/>
<path d="M311.066 108.774C312.666 109.041 315.066 109.041 316.4 108.774C317.6 108.374 316.266 108.108 313.333 108.241C310.4 108.241 309.333 108.508 311.066 108.774Z" fill="#804000"/>
</svg>
