<svg width="100" height="85" viewBox="0 0 100 85" fill="none" xmlns="http://www.w3.org/2000/svg">
<path d="M36.7114 19.8385C33.0528 20.7004 29.1872 22.8997 27.1854 25.2773C18.9709 34.9067 27.2199 47.627 41.6814 47.627C46.4099 47.627 50.7933 46.2598 53.9341 43.8228C54.4518 43.4067 55.0731 43.1689 55.3492 43.2581C55.6253 43.3472 57.1784 44.9521 58.8006 46.7948C64.8752 53.7196 68.9479 56.2458 74.056 56.2458C80.5102 56.2458 82.7536 51.8472 78.7845 46.9137C77.3694 45.1602 74.5737 43.8228 68.5337 42.0693C62.9423 40.4049 58.3519 38.7703 58.3519 38.4434C58.3519 38.3542 58.5935 37.7301 58.8696 37.0763C59.1458 36.4224 59.3528 34.7878 59.3874 33.4504C59.4219 27.0605 54.2102 21.592 46.4099 19.8385C43.9249 19.2738 39.0929 19.3035 36.7114 19.8385ZM47.6524 21.057C50.4136 21.8892 51.5526 22.5133 53.6234 24.1479C56.4191 26.3472 57.9723 28.9924 58.559 32.6479C58.8006 34.0745 57.5236 39.4836 56.7643 40.2266C56.4881 40.4644 56.2811 40.821 56.2811 40.9993C56.2811 41.4749 51.0003 44.8333 49.2056 45.5168C46.2719 46.6165 44.9258 46.8542 41.6124 46.8542C38.6442 46.8542 37.8158 46.7354 35.6414 46.0221C31.1545 44.5361 27.7376 41.8315 25.8048 38.2056C25.1835 37.0168 25.0455 36.2441 25.0455 33.5098C25.0455 30.4189 25.1145 30.1217 26.1499 28.3088C27.4615 25.9609 30.5678 23.1375 33.0528 21.9784C37.6087 19.8682 42.7859 19.5413 47.6524 21.057ZM59.0422 40.1375C59.0422 40.2861 58.7316 40.6427 58.3174 40.9696C57.7307 41.4451 57.6271 41.7424 57.7997 42.7826C58.0068 44.12 57.5926 44.4766 56.9713 43.4958C56.4191 42.5745 56.5572 41.5343 57.351 40.6724C58.0068 39.9294 59.0422 39.6322 59.0422 40.1375ZM63.4946 41.5938C64.7371 42.3962 64.8061 43.2581 63.6672 44.0308C62.6317 44.7441 61.3547 44.8333 60.8715 44.2686C60.4228 43.8228 60.0776 42.5745 60.3883 42.6042C60.8715 42.6637 62.1485 42.1882 62.1485 41.9504C62.1485 41.8018 61.7343 41.6829 61.2166 41.6829C58.3174 41.7126 59.0767 43.9119 62.4937 45.5465C63.8397 46.1707 64.599 46.2896 68.154 46.3787C71.2603 46.4976 72.1922 46.4382 71.9851 46.1707C71.8471 45.9626 71.2603 45.8438 70.6736 45.9032C69.8798 45.9626 69.5691 45.8735 69.5691 45.5465C69.5691 45.2196 70.0868 45.071 71.7435 45.0116C73.7109 44.9224 74.0905 45.0116 75.195 45.7546C75.9198 46.2004 76.5756 46.557 76.7481 46.4976C76.8862 46.4679 76.9897 46.6165 76.9897 46.8542C76.9897 47.092 77.1968 47.3595 77.4384 47.4189C77.7145 47.5378 77.7491 47.5972 77.4384 47.5972C77.2313 47.627 76.8172 47.4189 76.5065 47.1812C76.2304 46.9434 75.8508 46.7354 75.6437 46.7354C75.4366 46.7354 75.9198 47.3 76.7826 47.9836C78.0252 49.0238 78.3703 49.5588 78.6809 50.9259C79.0951 52.5605 78.9571 53.571 78.3358 53.571C77.9216 53.571 77.7491 53.1252 77.542 51.5798C77.3004 49.7371 76.1614 48.4889 74.0905 47.835C73.5383 47.6567 73.5038 47.6864 73.8834 48.0728C74.125 48.3105 74.4702 48.5186 74.6427 48.5186C75.0914 48.5186 76.6446 50.0343 76.6446 50.4801C76.6446 50.8962 76.2649 50.6882 74.3321 49.2021C73.7799 48.7861 72.8135 48.5186 71.3984 48.37C69.1204 48.1322 69.224 47.5675 71.5364 47.6864C72.2612 47.7161 72.9515 47.6567 73.0551 47.5378C73.1931 47.4189 71.2258 47.3298 68.6717 47.3298C64.5645 47.3298 63.8397 47.2406 62.3211 46.6165C60.7334 45.9924 58.3519 44.0903 58.3519 43.4661C58.3519 43.3472 58.2829 43.0203 58.1794 42.8123C58.0758 42.5745 58.3174 42.0098 58.7316 41.564C59.4219 40.821 59.6635 40.7319 61.0441 40.8805C61.8724 40.9696 62.9769 41.2965 63.4946 41.5938ZM66.8425 42.5745C67.1531 42.5745 67.2567 42.6934 67.1531 42.8717C67.0496 43.0203 67.1876 43.1689 67.4637 43.1689C68.3266 43.1689 68.085 43.6742 67.0841 44.0308C66.2212 44.328 66.2212 44.3577 66.9805 44.1794C69.3275 43.7039 71.3294 43.7039 71.778 44.1794C72.1922 44.5955 72.0887 44.6549 70.7426 44.6549C69.9143 44.6847 68.7408 44.9224 68.1195 45.1899C66.808 45.7843 63.5291 45.7249 63.5291 45.1007C63.5291 44.5955 64.4955 44.2983 65.2893 44.5063C65.669 44.6252 65.9451 44.5658 65.9451 44.3875C65.9451 44.2091 65.6345 44.0605 65.2893 44.0605C64.6681 44.0605 64.6336 43.9714 64.9787 43.1392C65.2203 42.5448 65.4964 42.307 65.8416 42.3962C66.1177 42.4854 66.5664 42.5745 66.8425 42.5745ZM64.0123 48.2214C64.599 48.37 66.6354 48.578 68.5337 48.6375C72.4338 48.7563 74.1595 49.2913 75.7472 50.9259C76.8517 52.0256 76.7481 53.0063 75.4711 54.1357C73.9525 55.4434 69.7417 55.2354 69.224 53.8385C69.0859 53.5116 68.8098 53.2738 68.6027 53.3333C68.085 53.3927 65.9451 52.3228 65.9451 51.9661C65.9451 51.8175 66.4628 51.7878 67.0841 51.9067C68.0505 52.0553 68.085 52.0256 67.4983 51.7284C67.1186 51.5203 66.1867 51.2826 65.4619 51.1934C64.7026 51.1042 64.0468 50.8665 63.9433 50.6584C63.7707 50.2126 66.8425 50.1532 68.154 50.599C68.9133 50.8368 69.0169 51.0151 68.8443 51.8472L68.6027 52.828L69.4656 51.7878C70.3975 50.6287 71.6055 50.3315 73.2277 50.8962C74.056 51.1934 74.2286 51.4312 74.2286 52.2633C74.2286 53.4224 73.2622 54.0168 71.9161 53.7196C70.7081 53.4819 70.9842 52.5011 72.2612 52.62C73.3657 52.7389 73.5728 51.9364 72.5029 51.6392C70.9497 51.2231 69.3966 53.0063 70.6391 53.7791C72.1232 54.7004 75.264 53.7791 75.264 52.3822C75.264 51.2528 70.8807 49.0238 70.501 49.9749C70.432 50.1532 69.9833 50.3018 69.5346 50.3018C69.0514 50.3018 68.7408 50.1829 68.8443 50.0343C68.9479 49.9154 67.9815 49.7074 66.7044 49.6182C64.392 49.4399 62.5627 48.9347 61.3202 48.0728C60.8025 47.7161 60.7334 47.5675 61.0786 47.2109C61.4582 46.8245 61.5963 46.8245 62.2521 47.3298C62.6317 47.6567 63.4256 48.0431 64.0123 48.2214ZM77.611 53.3035C78.1632 54.0465 77.6455 54.7598 76.6101 54.7598C75.9888 54.7598 75.9543 54.7004 76.4375 53.8979C76.7481 53.4224 76.8517 52.9766 76.7481 52.8577C76.6101 52.7686 76.6791 52.6794 76.8517 52.6794C77.0242 52.6794 77.3694 52.9469 77.611 53.3035Z" fill="#804000"/>
<path d="M38.1613 23.6424C31.8452 25.277 28.2557 29.9134 29.0495 35.3522C29.8779 41.0288 36.9533 45.1302 44.0978 44.0602C45.4094 43.8819 47.1006 43.4361 47.8944 43.1092C52.6229 41.0882 55.9018 35.4414 54.5557 31.6966C53.3477 28.249 50.8972 25.7228 47.4802 24.326C45.8235 23.6424 44.8226 23.4641 42.4756 23.3749C40.8189 23.3155 38.9552 23.4344 38.1613 23.6424ZM44.0633 24.1774C49.6201 25.0393 53.8654 29.2298 53.8654 33.777C53.8654 37.2543 51.2423 40.6721 47.2731 42.4553C45.5819 43.1983 45.0642 43.2875 41.7854 43.3172C38.2994 43.3172 38.0923 43.2875 35.9869 42.3067C33.5709 41.1774 32.0178 39.7805 30.7407 37.6109C29.5327 35.6197 29.5327 31.756 30.7062 29.8539C32.4664 26.9414 35.7798 24.7718 39.3693 24.1774C41.5437 23.8207 41.7508 23.8207 44.0633 24.1774Z" fill="#804000"/>
<path d="M34.3985 28.2791C34.2604 28.4277 34.3295 28.6357 34.5365 28.7546C34.7091 28.8438 34.8817 28.7546 34.8817 28.5466C34.8817 28.2494 34.9852 28.2791 35.2613 28.606C35.572 28.9626 35.6065 28.9626 35.5029 28.6357C35.3304 28.1008 34.6746 27.8927 34.3985 28.2791Z" fill="#804000"/>
<path d="M49.965 30.5974C49.8959 30.746 49.9305 31.1621 50.103 31.5782C50.3446 32.2618 50.3446 32.2618 50.3791 31.3404C50.4137 30.4191 50.2756 30.1516 49.965 30.5974Z" fill="#804000"/>
<path d="M50.4827 34.9659C50.5172 35.2631 50.7588 35.4711 50.9314 35.4711C51.4491 35.4414 51.3456 34.7578 50.8279 34.6092C50.5172 34.5201 50.3792 34.6687 50.4827 34.9659Z" fill="#804000"/>
<path d="M62.2528 42.8716C61.8041 43.1688 61.459 43.4957 61.459 43.5849C61.459 43.9415 62.4254 43.7632 62.8396 43.3174C63.5299 42.6041 63.0812 42.2772 62.2528 42.8716Z" fill="#804000"/>
<path d="M72.9522 45.4574C73.0902 45.5466 73.0212 45.814 72.8141 46.0518C72.5035 46.349 72.538 46.4382 72.9867 46.4382C73.2973 46.4382 73.5389 46.2004 73.5389 45.8438C73.5389 45.5168 73.3664 45.2494 73.1248 45.2494C72.9177 45.2494 72.8486 45.3385 72.9522 45.4574Z" fill="#804000"/>
</svg>
