<svg width="593" height="85" viewBox="0 0 593 85" fill="none" xmlns="http://www.w3.org/2000/svg">
<path d="M531.243 19.8383C527.636 20.7001 523.824 22.8994 521.85 25.2771C513.749 34.9064 521.884 47.6267 536.144 47.6267C540.807 47.6267 545.13 46.2596 548.227 43.8225C548.737 43.4064 549.35 43.1687 549.622 43.2578C549.895 43.347 551.426 44.9519 553.026 46.7946C559.016 53.7194 563.032 56.2456 568.069 56.2456C574.434 56.2456 576.646 51.847 572.732 46.9134C571.337 45.1599 568.58 43.8225 562.624 42.069C557.11 40.4047 552.583 38.7701 552.583 38.4432C552.583 38.354 552.822 37.7299 553.094 37.076C553.366 36.4222 553.57 34.7876 553.604 33.4501C553.638 27.0603 548.499 21.5918 540.807 19.8383C538.357 19.2736 533.592 19.3033 531.243 19.8383ZM542.032 21.0568C544.755 21.889 545.878 22.5131 547.921 24.1477C550.677 26.347 552.209 28.9921 552.788 32.6477C553.026 34.0743 551.766 39.4834 551.018 40.2264C550.745 40.4641 550.541 40.8208 550.541 40.9991C550.541 41.4746 545.334 44.833 543.564 45.5166C540.671 46.6162 539.344 46.854 536.076 46.854C533.149 46.854 532.332 46.7351 530.188 46.0218C525.764 44.5358 522.394 41.8313 520.488 38.2054C519.876 37.0166 519.739 36.2439 519.739 33.5096C519.739 30.4187 519.808 30.1215 520.829 28.3085C522.122 25.9606 525.185 23.1372 527.636 21.9781C532.128 19.868 537.233 19.5411 542.032 21.0568ZM553.264 40.1372C553.264 40.2858 552.958 40.6425 552.549 40.9694C551.971 41.4449 551.869 41.7421 552.039 42.7823C552.243 44.1197 551.835 44.4764 551.222 43.4956C550.677 42.5743 550.813 41.5341 551.596 40.6722C552.243 39.9292 553.264 39.632 553.264 40.1372ZM557.655 41.5935C558.88 42.396 558.948 43.2578 557.825 44.0306C556.804 44.7439 555.544 44.833 555.068 44.2683C554.625 43.8225 554.285 42.5743 554.591 42.604C555.068 42.6634 556.327 42.1879 556.327 41.9501C556.327 41.8015 555.919 41.6827 555.408 41.6827C552.549 41.7124 553.298 43.9117 556.668 45.5463C557.995 46.1704 558.744 46.2893 562.249 46.3785C565.312 46.4974 566.231 46.4379 566.027 46.1704C565.891 45.9624 565.312 45.8435 564.734 45.9029C563.951 45.9624 563.645 45.8732 563.645 45.5463C563.645 45.2194 564.155 45.0708 565.789 45.0113C567.729 44.9222 568.103 45.0113 569.192 45.7543C569.907 46.2002 570.554 46.5568 570.724 46.4974C570.86 46.4676 570.962 46.6162 570.962 46.854C570.962 47.0918 571.166 47.3592 571.405 47.4187C571.677 47.5376 571.711 47.597 571.405 47.597C571.201 47.6267 570.792 47.4187 570.486 47.1809C570.213 46.9432 569.839 46.7351 569.635 46.7351C569.431 46.7351 569.907 47.2998 570.758 47.9834C571.983 49.0236 572.324 49.5585 572.63 50.9257C573.038 52.5603 572.902 53.5708 572.29 53.5708C571.881 53.5708 571.711 53.125 571.507 51.5795C571.269 49.7369 570.145 48.4886 568.103 47.8348C567.559 47.6564 567.525 47.6862 567.899 48.0725C568.137 48.3103 568.478 48.5183 568.648 48.5183C569.09 48.5183 570.622 50.0341 570.622 50.4799C570.622 50.896 570.248 50.6879 568.342 49.2019C567.797 48.7858 566.844 48.5183 565.449 48.3697C563.202 48.132 563.304 47.5673 565.585 47.6862C566.299 47.7159 566.98 47.6564 567.082 47.5376C567.218 47.4187 565.278 47.3295 562.76 47.3295C558.71 47.3295 557.995 47.2404 556.497 46.6162C554.932 45.9921 552.583 44.09 552.583 43.4659C552.583 43.347 552.515 43.0201 552.413 42.812C552.311 42.5743 552.549 42.0096 552.958 41.5638C553.638 40.8208 553.877 40.7316 555.238 40.8802C556.055 40.9694 557.144 41.2963 557.655 41.5935ZM560.956 42.5743C561.262 42.5743 561.364 42.6932 561.262 42.8715C561.16 43.0201 561.296 43.1687 561.569 43.1687C562.419 43.1687 562.181 43.6739 561.194 44.0306C560.343 44.3278 560.343 44.3575 561.092 44.1792C563.406 43.7036 565.381 43.7036 565.823 44.1792C566.231 44.5953 566.129 44.6547 564.802 44.6547C563.985 44.6844 562.828 44.9222 562.215 45.1897C560.922 45.7841 557.689 45.7246 557.689 45.1005C557.689 44.5953 558.642 44.2981 559.424 44.5061C559.799 44.625 560.071 44.5655 560.071 44.3872C560.071 44.2089 559.765 44.0603 559.424 44.0603C558.812 44.0603 558.778 43.9711 559.118 43.139C559.356 42.5446 559.629 42.3068 559.969 42.396C560.241 42.4851 560.684 42.5743 560.956 42.5743ZM558.165 48.2211C558.744 48.3697 560.752 48.5778 562.624 48.6372C566.47 48.7561 568.171 49.2911 569.737 50.9257C570.826 52.0253 570.724 53.0061 569.465 54.1355C567.967 55.4432 563.815 55.2351 563.304 53.8383C563.168 53.5113 562.896 53.2736 562.692 53.333C562.181 53.3925 560.071 52.3225 560.071 51.9659C560.071 51.8173 560.582 51.7876 561.194 51.9064C562.147 52.055 562.181 52.0253 561.603 51.7281C561.228 51.5201 560.309 51.2823 559.595 51.1932C558.846 51.104 558.199 50.8662 558.097 50.6582C557.927 50.2124 560.956 50.1529 562.249 50.5988C562.998 50.8365 563.1 51.0148 562.93 51.847L562.692 52.8278L563.543 51.7876C564.462 50.6285 565.653 50.3313 567.252 50.896C568.069 51.1932 568.239 51.4309 568.239 52.2631C568.239 53.4222 567.286 54.0166 565.959 53.7194C564.768 53.4816 565.04 52.5008 566.299 52.6197C567.389 52.7386 567.593 51.9362 566.538 51.639C565.006 51.2229 563.475 53.0061 564.7 53.7788C566.163 54.7002 569.261 53.7788 569.261 52.382C569.261 51.2526 564.938 49.0236 564.564 49.9746C564.496 50.1529 564.053 50.3015 563.611 50.3015C563.134 50.3015 562.828 50.1827 562.93 50.0341C563.032 49.9152 562.079 49.7071 560.82 49.618C558.539 49.4397 556.736 48.9344 555.51 48.0725C555 47.7159 554.932 47.5673 555.272 47.2106C555.646 46.8243 555.783 46.8243 556.429 47.3295C556.804 47.6564 557.586 48.0428 558.165 48.2211ZM571.575 53.3033C572.119 54.0463 571.609 54.7596 570.588 54.7596C569.975 54.7596 569.941 54.7002 570.418 53.8977C570.724 53.4222 570.826 52.9764 570.724 52.8575C570.588 52.7683 570.656 52.6792 570.826 52.6792C570.996 52.6792 571.337 52.9467 571.575 53.3033Z" fill="#804000"/>
<path d="M532.673 23.6424C526.444 25.277 522.905 29.9134 523.688 35.3522C524.504 41.0288 531.482 45.1302 538.527 44.0602C539.82 43.8819 541.488 43.4361 542.271 43.1092C546.934 41.0882 550.167 35.4414 548.84 31.6966C547.648 28.249 545.232 25.7228 541.862 24.326C540.229 23.6424 539.242 23.4641 536.927 23.3749C535.294 23.3155 533.456 23.4344 532.673 23.6424ZM538.493 24.1774C543.973 25.0393 548.159 29.2298 548.159 33.777C548.159 37.2543 545.572 40.6721 541.658 42.4553C539.99 43.1983 539.48 43.2875 536.247 43.3172C532.809 43.3172 532.605 43.2875 530.529 42.3067C528.146 41.1774 526.615 39.7805 525.355 37.6109C524.164 35.6197 524.164 31.756 525.321 29.8539C527.057 26.9414 530.324 24.7718 533.864 24.1774C536.008 23.8207 536.213 23.8207 538.493 24.1774Z" fill="#804000"/>
<path d="M528.962 28.2792C528.826 28.4278 528.894 28.6358 529.099 28.7547C529.269 28.8439 529.439 28.7547 529.439 28.5467C529.439 28.2495 529.541 28.2792 529.813 28.6061C530.12 28.9628 530.154 28.9628 530.052 28.6358C529.881 28.1009 529.235 27.8928 528.962 28.2792Z" fill="#804000"/>
<path d="M544.313 30.5974C544.245 30.746 544.279 31.1621 544.449 31.5782C544.688 32.2618 544.688 32.2618 544.722 31.3404C544.756 30.4191 544.619 30.1516 544.313 30.5974Z" fill="#804000"/>
<path d="M544.823 34.9659C544.857 35.2631 545.095 35.4712 545.265 35.4712C545.776 35.4415 545.673 34.7579 545.163 34.6093C544.857 34.5201 544.72 34.6687 544.823 34.9659Z" fill="#804000"/>
<path d="M556.43 42.8714C555.988 43.1686 555.647 43.4955 555.647 43.5847C555.647 43.9413 556.6 43.763 557.009 43.3172C557.69 42.6039 557.247 42.277 556.43 42.8714Z" fill="#804000"/>
<path d="M566.981 45.4572C567.117 45.5464 567.049 45.8139 566.844 46.0516C566.538 46.3488 566.572 46.438 567.015 46.438C567.321 46.438 567.559 46.2002 567.559 45.8436C567.559 45.5167 567.389 45.2492 567.151 45.2492C566.947 45.2492 566.879 45.3383 566.981 45.4572Z" fill="#804000"/>
</svg>
