<svg width="69" height="66" viewBox="0 0 69 66" fill="none" xmlns="http://www.w3.org/2000/svg">
<path d="M25.3236 0.197929C18.3903 1.08715 11.7961 4.45072 7.04825 9.55406C5.31491 11.4098 2.41347 15.5853 2.41347 16.2039C2.41347 16.4358 2.18738 17.0544 1.92361 17.5957C0.491727 20.4567 -0.0358095 23.2016 0.00187168 28.0344C0.00187168 32.2485 0.114915 33.2537 0.981582 35.8054C3.5439 43.3057 8.85694 49.2983 16.054 52.7392C25.0975 57.0693 35.5352 56.7213 44.5033 51.7726C47.5555 50.1102 48.5729 49.7622 48.8367 50.3422C48.912 50.5355 50.1932 51.6953 51.7381 52.9712C55.8077 56.3347 58.37 59.0797 61.7236 63.7191C63.1555 65.7295 64.1729 66.1548 65.6424 65.3816C67.2627 64.531 68.4309 62.4046 68.4309 60.2782C68.4309 58.7318 68.2424 58.2678 67.0367 57.0306C66.283 56.2187 64.3613 54.9042 62.7787 54.0923C59.6511 52.5072 55.3932 49.3756 53.3207 47.2106L52.0772 45.8574L53.3961 44.1949C55.2425 41.8752 57.6917 36.7719 58.3323 33.8336C59.0859 30.6247 59.0859 24.7094 58.37 21.8485C55.9961 12.4924 49.2135 5.30127 39.1526 1.4351C36.0251 0.275253 29.4309 -0.343338 25.3236 0.197929ZM31.0511 0.932503C31.0511 1.12581 30.6367 1.55109 30.1091 1.89904C29.3178 2.44031 29.1671 2.44031 29.1671 1.97637C29.1671 1.66708 29.4685 1.20313 29.8454 1.00983C30.6367 0.507225 31.0511 0.468559 31.0511 0.932503ZM26.5294 1.7444C26.5294 1.97637 25.4367 2.13102 23.7787 2.09235C22.2338 2.05369 20.6135 2.247 20.199 2.47897C19.6714 2.7496 19.37 2.78826 19.37 2.55629C19.37 2.32432 19.9352 1.97637 20.6135 1.78306C22.2714 1.28046 26.5294 1.28046 26.5294 1.7444ZM38.6627 2.05369C39.0019 2.20834 37.5323 2.36298 35.3468 2.40165C33.199 2.44031 31.428 2.28566 31.428 2.09235C31.428 1.70573 37.683 1.66708 38.6627 2.05369ZM32.5584 3.29087C37.8714 3.90945 42.6569 5.8812 46.3874 8.97414C47.2917 9.70871 48.1584 10.1726 48.3845 10.0567C48.5729 9.94068 48.7613 10.018 48.7613 10.2886C48.7613 10.5593 49.4019 11.5645 50.1932 12.531C52.3033 15.16 53.4714 17.4024 54.6019 21.1912C55.5439 24.2842 55.6193 24.9801 55.4309 28.7303C55.2801 31.8619 55.0164 33.447 54.3004 35.2641C53.0946 38.2797 51.1729 41.7979 50.3439 42.4165C49.9671 42.6871 49.6656 43.3831 49.6656 43.963C49.628 44.5429 49.2511 45.5094 48.799 46.128C48.3468 46.7853 48.0077 47.4812 48.0077 47.7132C48.0077 47.9451 47.5178 48.1384 46.8772 48.1384C46.1613 48.1384 45.7468 47.9451 45.7468 47.5972C45.7468 47.2879 45.3323 47.0946 44.654 47.1332C43.8627 47.1719 43.6367 47.2879 43.9004 47.6358C44.1642 47.9451 43.599 48.4091 41.9033 49.2596C38.512 50.9607 35.9874 51.618 31.428 51.8886C19.5584 52.5459 9.38448 46.5147 5.08883 36.2306C2.37578 29.6581 3.09173 21.0752 6.82216 15.276C10.8164 9.09012 17.3352 4.76001 24.6453 3.48417C28.2627 2.82692 28.7149 2.82692 32.5584 3.29087ZM40.4338 3.32953C41.5265 3.71614 42.054 4.45072 41.2251 4.45072C40.6222 4.45072 38.9642 3.5615 38.9642 3.21354C38.9642 2.82692 39.0019 2.82692 40.4338 3.32953ZM15.6019 4.76001C15.0743 5.10796 13.341 6.80908 11.7584 8.47153C10.1381 10.1726 8.70622 11.4098 8.59318 11.2938C8.25405 10.9459 12.4743 6.07451 14.0946 4.99198C14.8106 4.48938 15.6396 4.0641 15.9787 4.0641C16.3555 4.10276 16.2425 4.33473 15.6019 4.76001ZM45.9352 5.53325C46.7265 6.15183 47.9323 7.77562 48.1961 8.58752C48.6106 10.018 47.8569 9.59272 46.9149 7.93027C46.4627 7.07971 45.8222 6.15183 45.5207 5.80387C44.9178 5.22395 45.2569 4.99198 45.9352 5.53325ZM6.36999 14.0775C5.99318 14.7734 3.16709 16.8998 3.16709 16.5132C3.16709 15.9332 5.50332 13.7295 6.06854 13.7295C6.36999 13.7295 6.52071 13.8842 6.36999 14.0775ZM54.3004 15.4306C55.3555 16.3585 55.3932 17.0544 54.3758 16.6292C53.6975 16.3199 52.3787 14.5028 52.8685 14.5028C53.0569 14.5028 53.7352 14.928 54.3004 15.4306ZM57.5033 22.1964C58.1816 25.2507 58.1062 29.4648 57.3149 31.2819C56.3352 33.563 56.1845 32.7511 56.9004 29.3102C57.541 26.1786 57.4656 25.2121 56.1091 19.5288C55.883 18.6009 55.883 18.6009 56.4482 19.2968C56.7497 19.6834 57.2396 20.9979 57.5033 22.1964ZM2.18738 23.395C2.90332 25.2121 2.941 25.7147 2.41347 25.7147C1.99897 25.7147 1.50912 24.5935 1.05694 22.815C0.680133 21.2686 1.50912 21.6938 2.18738 23.395ZM2.63955 32.0552C2.30042 34.7228 2.82796 36.6946 4.48593 39.2076C5.84245 41.2567 6.1439 42.1459 5.3526 41.8752C4.41057 41.566 2.03665 36.7332 1.77289 34.7228C1.5468 32.4418 1.88593 29.9674 2.48883 29.9674C2.7526 29.9674 2.79028 30.6634 2.63955 32.0552ZM57.0511 35.1868C57.0511 36.0373 55.77 38.473 54.6396 39.8262C54.0743 40.4448 53.283 41.7206 52.8685 42.6098C52.1526 44.1563 51.399 44.7749 51.399 43.8857C51.399 43.1511 52.5671 41.0634 54.0743 39.0143C54.8656 37.9318 55.7323 36.5013 55.9584 35.844C56.3729 34.5682 57.0511 34.1816 57.0511 35.1868ZM8.51781 44.6976C8.32941 46.3213 7.68883 46.476 7.68883 44.8909C7.68883 43.8857 7.83955 43.499 8.17868 43.615C8.40477 43.6923 8.59318 44.1949 8.51781 44.6976ZM51.399 45.1228C51.399 45.5094 51.1352 45.8187 50.8338 45.8187C50.2685 45.8187 50.0424 44.2723 50.5323 43.7697C50.8714 43.4217 51.399 44.2723 51.399 45.1228ZM15.1874 49.6849C16.1671 50.1102 18.5787 50.8448 20.5381 51.3474C24.683 52.4686 26.9062 53.4738 26.9062 54.247C26.9062 54.5176 26.7932 54.7109 26.6425 54.6336C26.454 54.5563 25.4367 54.015 24.3816 53.4351C23.2888 52.8552 22.3845 52.5072 22.3845 52.6232C22.3845 52.7778 22.1584 52.7005 21.8946 52.4686C21.6309 52.2366 20.312 51.85 18.9932 51.6567C17.6367 51.4247 15.9787 51.0767 15.2627 50.8448C13.6801 50.3808 11.4569 48.873 11.4569 48.2931C11.4569 48.0225 11.1932 47.7518 10.8917 47.5972C10.5903 47.4812 10.3265 47.2106 10.3265 46.9399C10.3265 46.708 11.0048 47.0946 11.8338 47.7518C12.6627 48.4477 14.17 49.2983 15.1874 49.6849ZM52.4164 47.4425C52.8309 47.9451 53.7352 49.337 54.4135 50.5741C55.6569 52.8552 58.2569 55.4842 59.2743 55.4842C59.9903 55.4842 63.1932 57.0693 64.5874 58.0745L65.5294 58.7704L64.9265 57.8039C64.3236 56.8373 63.4193 56.2961 59.8019 54.6723C57.8801 53.8604 55.3178 51.618 56.2598 51.618C56.5236 51.618 57.2772 52.0433 57.9178 52.5459C58.5961 53.0485 60.0656 53.8604 61.1961 54.363C64.9642 55.9868 66.8482 58.0358 66.8482 60.5489C66.8482 61.2448 66.7729 61.3221 66.2453 60.8581C65.7555 60.4329 65.6801 60.4329 65.7178 60.9355C65.9062 62.2113 65.6801 63.1392 65.1149 63.3712C64.1729 63.7191 64.0975 63.4485 64.6251 61.9407C65.341 59.8529 64.2859 58.6931 60.3294 57.108C56.5236 55.6002 54.941 54.131 53.0193 50.3808C52.3033 48.9117 51.4367 47.7518 51.1729 47.7518C50.4569 47.7518 50.4946 49.0663 51.2106 49.6849C51.8135 50.1875 51.9642 51.2314 51.4743 51.2314C50.9468 51.2314 49.9671 49.9942 49.5149 48.757C48.7613 46.708 50.8714 45.7414 52.4164 47.4425ZM47.5178 49.0663C47.6685 49.2596 47.141 49.2983 46.1613 49.1436C45.2193 48.989 44.654 49.0277 44.7671 49.2596C45.0309 49.6849 43.1845 51.1927 40.8482 52.4299C39.4917 53.1258 38.399 53.3578 35.3091 53.4738C30.2598 53.7057 30.1091 52.9712 35.1207 52.6232C39.1149 52.3139 41.828 51.3087 43.4859 49.4916C44.2019 48.7184 44.6917 48.5251 45.8598 48.6024C46.6511 48.641 47.4048 48.8344 47.5178 49.0663ZM62.8917 59.5823C63.8714 60.6648 64.1729 62.4433 63.3439 62.4433C63.0801 62.4433 62.6656 61.9407 62.4396 61.2834C62.2135 60.6648 61.6106 59.9689 61.083 59.7756C59.6135 59.1957 59.4627 58.5771 60.8193 58.5771C61.6106 58.5771 62.2888 58.9251 62.8917 59.5823Z" fill="#804000"/>
<path d="M28.2629 7.42743C28.1499 7.54341 28.0368 9.94044 28.0368 12.7241V17.7888L26.0397 18.91C22.0455 21.2297 19.747 24.1679 18.0513 29.1553C16.431 33.872 18.202 40.7538 22.1586 45.0066C24.1933 47.2103 25.776 48.2155 28.9035 49.2981C32.7093 50.6126 37.231 50.1873 41.3383 48.1382C42.6571 47.481 42.6948 46.8624 41.376 47.4036C40.8107 47.5969 40.2832 47.6743 40.1702 47.5969C40.0571 47.481 40.3209 47.249 40.6977 47.0943C44.1644 45.7798 47.3296 41.3337 48.2716 36.5397L48.7615 34.0267L48.4977 36.3464C48.0078 41.1791 48.3093 43.7308 49.2136 42.8029C49.5528 42.4549 49.5151 42.107 49.1383 41.4111C48.7991 40.7152 48.7615 40.2899 49.0629 39.9419C49.2513 39.6713 49.6658 38.3568 49.9296 37.0423C51.5122 29.194 46.2745 20.4178 38.5122 17.9048C36.0252 17.1315 31.089 16.9382 29.8832 17.5955C29.2049 17.9821 29.1673 17.8274 29.1673 12.8014C29.1673 8.04602 28.9412 6.73152 28.2629 7.42743ZM35.6107 18.562C38.3615 18.7553 44.9557 22.3508 44.9933 23.6653C44.9933 23.936 45.1441 24.1679 45.2948 24.1679C45.9354 24.1679 47.9702 28.3048 48.1962 29.9672L48.3846 31.707L47.8194 30.1992C47.518 29.3486 47.0281 28.3821 46.7644 28.0728C46.5006 27.7248 46.0484 26.9903 45.747 26.4103C45.4832 25.8304 44.9557 24.9798 44.5412 24.5932C44.1644 24.1679 43.8629 23.6267 43.8629 23.3947C43.8629 23.2014 43.6368 23.0081 43.3731 23.0081C43.1093 23.0081 42.5441 22.6988 42.1296 22.3122C40.8484 21.075 37.0803 19.9152 33.9904 19.8378C31.2774 19.7219 31.0136 19.7992 29.431 20.9204L27.7731 22.1575L27.6977 27.3769L27.6223 32.5962L28.7528 33.4081C29.3557 33.872 29.9586 34.22 30.1093 34.22C30.2223 34.22 30.5615 34.452 30.8629 34.6839C31.1267 34.9546 32.2194 35.6891 33.3122 36.3464C34.3673 36.965 36.5151 38.3181 38.0223 39.3233C40.3586 40.8698 40.9991 41.1018 41.7151 40.8311C43.26 40.2126 43.26 39.2847 41.7528 37.8542C41.0368 37.1196 40.1702 36.5397 39.8687 36.5397C39.5673 36.5397 39.3412 36.4237 39.3412 36.2304C39.3412 35.9598 33.3499 32.1709 29.5817 30.0832C29.318 29.9285 29.3557 21.5003 29.6571 21.191C29.8455 21.0364 31.6165 20.8817 33.6513 20.9204C37.0049 20.9204 37.4571 21.0364 39.5296 22.1962C40.7731 22.8921 42.3557 24.0133 43.0339 24.6706C44.202 25.7917 44.6542 26.5263 46.576 30.1219C47.518 31.9003 47.4803 36.3077 46.4252 39.13C45.3325 42.1843 42.2049 45.3932 39.2281 46.5531C36.9296 47.4036 33.3122 47.6743 31.2397 47.133C28.9789 46.5531 24.6455 44.0787 24.6455 43.3828C24.6455 43.2282 24.2687 42.6869 23.8542 42.223C22.6861 40.9858 21.2165 37.4289 20.9904 35.3025C20.576 31.5523 22.1586 27.1836 25.06 24.052C26.0774 22.9694 26.7933 22.0029 26.718 21.9256C26.4919 21.6549 24.5702 22.9694 23.7789 23.936C23.402 24.3999 22.7615 25.1345 22.3846 25.5598C21.1788 27.0289 19.747 31.9776 19.747 34.7613C19.747 36.1144 19.9354 37.3903 20.1238 37.5062C20.3499 37.6222 20.5006 38.0862 20.5006 38.5114C20.5006 38.8981 20.689 39.246 20.8774 39.246C21.1035 39.246 21.2542 39.5553 21.2542 39.9419C21.2542 40.7538 22.9875 43.4215 24.0426 44.3107C24.4948 44.6587 25.4368 45.5092 26.1528 46.1665C27.2078 47.0943 27.3209 47.2877 26.6426 47.133C26.1904 47.017 25.06 46.1665 24.1557 45.3159C17.2223 38.6661 16.8832 28.8847 23.3644 22.4668C24.5325 21.2683 25.7383 20.3018 25.9644 20.3018C26.2281 20.3018 26.9064 19.9152 27.4716 19.4899C28.4513 18.678 32.1064 17.9048 33.3122 18.2527C33.6136 18.33 34.6687 18.4847 35.6107 18.562ZM31.2397 48.3702L33.1238 48.8728L31.2397 48.6408C30.2223 48.5248 28.9412 48.1769 28.4136 47.8676L27.4716 47.3263L28.4136 47.5969C28.9412 47.7516 30.2223 48.0995 31.2397 48.3702ZM38.0223 48.4862C37.4571 49.0661 34.4426 49.4914 34.4426 48.9888C34.4426 48.7568 35.1586 48.4862 36.0629 48.4088C36.9296 48.3315 37.7962 48.2542 38.0223 48.2155C38.2484 48.1769 38.2484 48.2542 38.0223 48.4862Z" fill="#804000"/>
</svg>
