<svg width="92" height="47" viewBox="0 0 92 47" fill="none" xmlns="http://www.w3.org/2000/svg">
<path d="M88.3039 0.893711C87.8783 1.53199 87.4527 2.53501 87.3109 3.08211C86.6725 5.45287 77.2393 17.8538 76.4591 17.4891C75.9626 17.2155 74.1894 18.948 72.5581 21.2276L69.6501 25.3308H63.976H58.3018V14.3888V3.44684H46.5989C37.6621 3.44684 34.896 3.72039 34.896 4.63223C34.896 5.45287 32.4845 5.63524 24.257 5.45287L13.6179 5.08814V7.91482C13.6179 10.7415 13.6179 10.7415 9.64604 10.7415H5.67414L5.88692 18.2185L6.17063 25.7867L3.04985 25.422L0 25.1485L0.354634 33.2638C0.709268 42.4733 1.34761 44.6617 4.32653 46.303C8.65307 48.5825 12.9087 45.0264 12.9087 39.1907V35.8169L37.1656 35.9993L61.4935 36.1816L61.2808 39.1907C61.2098 40.832 61.5645 42.9292 62.061 43.7498C63.4086 45.9382 66.7421 47.3972 69.0118 46.7589C72.2744 45.847 73.4802 43.2027 73.6929 36.5464C73.8348 30.5283 73.9057 30.4371 77.8067 25.3308C80.0054 22.5041 81.7077 19.6775 81.5658 19.1304C81.424 18.5833 83.9064 14.8447 86.9563 10.6503C91.4956 4.63223 92.4176 2.89974 91.8502 1.71436C90.9282 -0.200489 89.2259 -0.56522 88.3039 0.893711ZM52.4149 5.27051H57.6635L57.4507 15.483L57.2379 25.7867L54.7555 26.0603C53.4079 26.2427 47.0954 26.1515 40.7829 25.7867L29.2218 25.1485L29.5765 22.2306C29.7183 20.6805 29.8602 18.8568 29.8602 18.2185C29.9311 17.3067 31.2787 17.0331 35.2506 17.2155C38.1586 17.3067 40.7829 17.1243 41.0666 16.8508C41.2794 16.486 40.3573 16.2125 39.0097 16.2125H36.4564L36.1727 11.3798C35.7471 4.08512 35.7471 3.99394 41.8468 4.72341C44.7548 4.99696 49.5069 5.27051 52.4149 5.27051ZM34.896 11.6533V16.2125H31.7752C28.8672 16.2125 28.7254 16.0301 28.7963 13.6594L28.8672 11.1974L21.9873 10.9239C15.6039 10.7415 15.0365 10.5591 15.0365 8.91784C15.0365 7.18535 15.6039 7.09417 24.9662 7.09417H34.896V11.6533ZM8.93678 13.0211C7.66009 14.2065 7.73102 14.2976 10.2844 14.3888C12.1285 14.3888 12.9087 14.0241 12.9087 13.0211C12.9087 12.2004 13.6179 11.6533 14.7528 11.6533C16.1004 11.6533 16.5259 12.0181 16.1713 13.0211C15.8876 14.1153 16.5969 14.3888 20.4978 14.3888C26.0301 14.3888 25.8883 12.8387 20.356 12.2916C17.448 12.0181 17.6608 11.9269 21.9164 11.8357C24.6825 11.7445 27.165 12.0181 27.3777 12.474C27.5905 12.9299 27.9452 16.0301 28.1579 19.3127L28.5126 25.422L18.0154 25.1485L7.58917 24.8749L7.37639 19.0392C7.23453 14.9359 7.44731 12.9299 8.08566 12.474C9.71697 11.1062 10.4262 11.5621 8.93678 13.0211ZM78.6578 20.0422C78.516 20.6805 77.8067 21.1364 77.1684 21.0452C76.3882 21.0452 76.1045 21.4099 76.3172 22.1394C76.53 22.8689 76.3172 23.2336 75.8207 22.9601C75.2533 22.6865 74.8987 23.416 74.8278 24.5102C74.6859 26.6074 73.1965 29.2517 73.1965 27.428C73.1965 26.8809 72.7 26.2427 72.1326 26.0603C71.4233 25.8779 72.2035 24.6014 74.3313 22.3218C77.7358 18.8568 79.2252 18.0362 78.6578 20.0422ZM18.1573 29.4341C21.6327 30.1635 25.9592 30.8018 27.8742 30.8018C29.7183 30.8018 31.4915 31.1665 31.7043 31.7136C32.4135 33.1726 21.5617 32.8078 16.8806 31.2577C12.1285 29.6164 8.51122 29.3429 5.31951 30.2547C3.83005 30.7106 2.97893 30.6194 2.97893 29.9812C2.97893 28.887 8.44029 27.1545 10.4262 27.6104C11.2064 27.7928 14.6818 28.6134 18.1573 29.4341ZM40.5701 27.9751C40.5701 28.431 39.9318 29.1605 39.0807 29.4341C36.6692 30.4371 38.6551 31.9872 41.7759 31.5313C43.2653 31.2577 47.1663 30.3459 50.4999 29.5252C56.4577 27.884 62.5574 28.1575 62.5574 29.9812C62.5574 30.5283 61.2098 30.6194 59.153 30.2547C56.8833 29.89 54.1881 30.2547 51.1382 31.2577C45.4641 33.0814 37.7331 33.902 36.3854 32.7167C35.5343 31.9872 35.5343 31.5313 36.5982 29.5252C37.7331 27.2457 40.5701 26.1515 40.5701 27.9751ZM35.2506 29.0693C35.5343 29.6164 35.6053 30.1635 35.5343 30.2547C34.8251 30.893 24.257 29.6164 24.257 28.887C24.257 27.7016 34.6832 27.884 35.2506 29.0693ZM68.5153 29.5252C69.1536 30.2547 69.5083 31.3489 69.2955 31.8048C69.0118 32.2607 69.1536 32.6255 69.5083 32.6255C70.6431 32.6255 72.4872 38.4612 72.0616 40.5584C71.4233 43.4763 68.0897 45.0264 65.3945 43.5675C63.0539 42.2909 62.2737 40.2849 62.9121 36.9111C63.3376 34.9962 63.0539 34.6315 61.068 34.0844C59.8622 33.8109 57.4507 33.5373 55.7485 33.5373C54.1171 33.5373 52.4858 33.0814 52.2021 32.5343C51.5638 31.1665 61.3517 31.896 62.6993 33.2638C63.2667 33.8109 64.4725 33.7197 65.9619 33.0814C68.0897 32.1696 68.1607 31.896 67.1677 30.8018C66.2456 29.7988 65.891 29.89 65.1108 31.2577C64.2597 32.8078 64.1888 32.8078 63.7632 31.3489C63.4795 30.4371 63.4086 29.3429 63.6923 28.887C64.3306 27.5192 67.3095 27.9751 68.5153 29.5252ZM15.462 32.7167C15.6748 33.1726 14.54 33.5373 12.9796 33.5373C10.4262 33.5373 8.86585 32.6255 9.71697 31.5313C10.2135 30.893 15.0365 31.896 15.462 32.7167ZM9.92975 34.0844C11.4901 35.4522 11.9866 39.2819 10.9227 41.4703C9.43326 44.4793 3.68819 44.9352 3.68819 42.1085C3.68819 41.3791 3.40449 41.0143 2.97893 41.2879C2.55336 41.6526 2.41151 40.6496 2.55336 38.8259C2.69522 37.1846 2.83707 35.0874 2.908 34.1756C2.97893 32.1696 7.66009 31.9872 9.92975 34.0844Z" fill="#804000"/>
<path d="M37.7328 6.18227C37.1654 6.63818 37.3073 7.00292 38.0875 7.45883C39.7897 8.27948 41.9884 8.09712 41.9884 7.18528C41.9884 6.09108 38.7258 5.36162 37.7328 6.18227Z" fill="#804000"/>
<path d="M40.5703 22.1395C40.5703 23.1425 41.0668 23.4161 42.3435 22.9602C43.4783 22.5954 44.1167 22.7778 44.1167 23.5073C44.1167 24.0544 44.4713 24.2367 44.8259 23.9632C46.5282 22.5954 45.4643 20.7718 43.0528 20.7718C41.2796 20.7718 40.5703 21.1365 40.5703 22.1395Z" fill="#804000"/>
<path d="M7.94434 16.6687C7.94434 17.1247 9.36287 17.5806 11.136 17.5806C13.1929 17.5806 14.3277 17.2158 14.3277 16.4864C14.3277 15.7569 13.2638 15.4834 11.136 15.5745C9.36287 15.6657 7.94434 16.1216 7.94434 16.6687Z" fill="#804000"/>
<path d="M22.4836 21.6837C21.9872 22.6867 21.9162 22.6867 24.115 22.9603C25.037 23.1426 25.6753 22.6867 25.6753 21.9573C25.6753 20.5895 23.122 20.316 22.4836 21.6837Z" fill="#804000"/>
</svg>
