<svg width="71" height="62" viewBox="0 0 71 62" fill="none" xmlns="http://www.w3.org/2000/svg">
<path d="M22.5122 0.754913C8.70183 4.7368 0 15.8129 0 29.5893C0 39.4754 4.97866 48.8122 13.1177 54.1672L15.5854 55.8149V58.6983C15.5854 61.3987 15.672 61.6275 16.6677 61.9021C17.2305 62.0394 24.6768 62.0394 33.2055 61.8564C41.7341 61.6733 53.6829 61.4902 59.7439 61.4444L70.7835 61.3987L70.9134 51.4211L71 41.4892H68.6189H66.1945L66.2811 35.4019L66.3244 29.3605L63.0774 29.2232L59.8305 29.0858L59.5274 26.7059C58.0988 14.5771 49.6134 4.32489 38.3573 1.12106C33.6384 -0.206234 26.5384 -0.389309 22.5122 0.754913ZM23.8976 1.44145C23.1183 1.8076 21.8628 2.5399 21.1701 3.08913C20.4341 3.63835 19.7848 3.95874 19.6549 3.82143C19.222 3.36374 23.4213 0.846451 24.6768 0.800682C25.0232 0.800682 24.6768 1.07529 23.8976 1.44145ZM38.8768 4.09604C43.8122 5.97256 46.2799 7.57447 49.8732 11.3733C52.3409 13.9821 53.5963 15.7671 54.722 18.2386C56.1506 21.4424 57.7524 27.9874 57.3195 28.7655C57.1896 28.9485 53.0768 29.1316 48.1415 29.1316L39.1799 29.0858L41.3445 28.3078C42.9896 27.7128 43.5524 27.3009 43.639 26.477C43.8122 25.1497 43.3793 25.1955 38.6171 27.072C36.4091 27.9416 34.1579 28.6739 33.5951 28.6739C33.0323 28.6739 32.3396 28.9943 32.0366 29.3605C31.7335 29.7266 31.3006 30.047 31.0841 30.047C30.8244 30.047 30.7811 25.6989 30.9543 17.964C31.214 8.76447 31.1707 5.83526 30.7811 5.56065C30.478 5.37757 30.175 5.3318 30.0451 5.46911C29.9152 5.56065 29.7421 11.7852 29.5689 19.2913L29.3091 32.9304L30.4348 32.61C31.6037 32.3354 31.6037 32.3354 31.6037 34.8527V37.37L23.7244 37.4615L15.8018 37.5989L15.5854 45.1049L15.3689 52.611L13.2043 50.7803C6.40732 45.1049 3.03049 38.1023 3.03049 29.5893C3.03049 22.1747 5.23841 16.7282 10.3902 11.236C13.9402 7.48294 17.0573 5.42334 21.5598 4.00451C25.7159 2.67721 26.1488 2.63144 31.1707 2.81451C34.6774 2.90605 36.4091 3.22643 38.8768 4.09604ZM44.1152 4.46219C46.7128 5.83526 49.2238 8.1237 52.3841 11.9683C55.8043 16.179 55.6311 15.9044 54.8518 15.584C54.4622 15.4467 54.1159 15.1263 54.1159 14.9433C54.1159 14.7144 52.2976 12.6091 50.1329 10.2291C46.15 5.97256 44.4183 4.78257 40.6951 3.68412C38.9201 3.18066 38.8768 3.1349 40.089 3.08913C40.825 3.04336 42.6433 3.68412 44.1152 4.46219ZM13.8537 6.93371C13.8537 7.07102 12.6415 7.75755 11.2128 8.48985C9.09146 9.54254 8.70183 9.63408 9.39451 8.94754C9.87073 8.44408 10.9963 7.71178 11.9488 7.3914C13.9402 6.61333 13.8537 6.6591 13.8537 6.93371ZM6.06098 14.6229C5.54146 16.0417 4.93537 17.3232 4.7189 17.4606C4.19939 17.8267 4.19939 17.8267 5.23841 14.9433C6.27744 12.1056 6.4939 11.6021 6.75366 11.8768C6.88354 11.9683 6.5372 13.2498 6.06098 14.6229ZM3.89634 20.1609C3.89634 20.2982 3.63659 20.6644 3.33354 20.9848C3.03049 21.3051 2.42439 22.0832 2.03476 22.724C1.51524 23.502 1.29878 23.6394 1.29878 23.1359C1.29878 22.2663 2.90061 19.9778 3.50671 19.9778C3.72317 19.9778 3.89634 20.0694 3.89634 20.1609ZM57.8823 25.104C57.7957 25.9278 57.7091 25.287 57.7091 23.6394C57.7091 21.9917 57.7957 21.3509 57.8823 22.129C57.9689 22.9528 57.9689 24.3259 57.8823 25.104ZM65.2854 35.8596L65.4152 41.4434L59.6573 41.5807L53.8994 41.7181V50.8718V60.0256H51.3018H48.7043L48.5744 48.9038L48.4878 37.8277H40.7384H33.0323L32.7726 34.2577C32.686 32.3354 32.6427 30.5962 32.7726 30.3674C32.8591 30.1843 40.2189 30.0928 49.0506 30.1385L65.1555 30.2758L65.2854 35.8596ZM2.03476 33.8458C2.55427 34.6239 3.07378 35.9054 3.24695 36.6835C3.42012 37.8277 3.42012 37.8735 3.07378 37.0496C2.85732 36.5004 2.16463 35.2189 1.51524 34.212C0.216463 32.0151 0.64939 31.6489 2.03476 33.8458ZM47.5354 49.5903L47.4055 60.4833L32.1665 60.6206L16.9274 60.7579L16.7976 57.8745C16.711 56.2726 16.711 51.3295 16.7976 46.8442L16.9274 38.7431H32.2963H47.622L47.5354 49.5903ZM69.7445 51.3295C69.7012 56.0895 69.528 60.1629 69.3549 60.3002C69.1817 60.4833 65.8482 60.4833 61.9085 60.3002L54.7652 60.0256L54.6354 51.7872C54.5921 47.3019 54.6354 43.32 54.7652 42.9996C54.9384 42.4961 56.5835 42.4046 62.3848 42.4961L69.8311 42.6334L69.7445 51.3295ZM8.09573 47.9884C8.52866 48.4918 8.61524 48.8122 8.31219 48.8122C7.61951 48.8122 6.62378 47.0272 6.32073 45.3796C6.06098 44.0523 6.06098 44.0523 6.75366 45.6084C7.14329 46.478 7.74939 47.5765 8.09573 47.9884Z" fill="#804000"/>
<path d="M54.9814 37.1411C54.9814 37.6903 55.2845 37.8276 56.0638 37.7361C56.6699 37.6445 57.1894 37.3699 57.1894 37.1411C57.1894 36.8664 56.6699 36.6376 56.0638 36.5461C55.2845 36.4545 54.9814 36.5918 54.9814 37.1411Z" fill="#804000"/>
<path d="M59.0078 36.775C57.6225 37.3242 58.7048 37.8276 61.2591 37.8276C62.8609 37.8276 64.0731 37.6446 64.0731 37.3699C64.0731 37.0953 63.2938 36.9123 62.3847 36.9123C61.4322 36.9123 60.4365 36.8207 60.0902 36.7292C59.7871 36.5919 59.2676 36.6376 59.0078 36.775Z" fill="#804000"/>
<path d="M21.6461 40.5285C19.5247 40.7573 18.832 40.9862 18.832 41.4896C18.832 41.8558 19.0918 42.1762 19.3948 42.1304C19.6546 42.0846 21.0833 42.0389 22.5119 41.9931C24.8064 41.9473 25.1095 41.8558 25.1095 41.0319C25.1095 40.5285 24.9796 40.1623 24.8064 40.2081C24.59 40.2539 23.2046 40.3912 21.6461 40.5285Z" fill="#804000"/>
<path d="M27.3605 40.6652C26.408 41.6722 26.841 41.9468 29.1788 41.9468C31.2568 41.9468 32.5123 41.3976 31.9495 40.7568C31.4733 40.2533 27.7934 40.2076 27.3605 40.6652Z" fill="#804000"/>
<path d="M43.8554 56.9134C43.5524 57.0049 43.3359 57.783 43.3359 58.561C43.3792 59.6595 43.4658 59.751 43.5957 58.973C43.8122 57.783 44.5048 57.6914 45.2841 58.7441C45.8469 59.5222 45.8469 59.5222 45.8902 58.6068C45.8902 58.1033 45.6737 57.4626 45.3707 57.1422C44.8079 56.5472 44.678 56.5472 43.8554 56.9134Z" fill="#804000"/>
<path d="M40.1332 58.286C39.5704 58.8352 39.8302 59.7964 40.4796 59.7964C40.8259 59.7964 41.129 59.3845 41.129 58.881C41.129 57.9656 40.6528 57.691 40.1332 58.286Z" fill="#804000"/>
<path d="M56.2803 44.2357C56.2803 44.4645 57.0595 44.6934 58.012 44.6934C58.9644 44.6934 59.7437 44.4645 59.7437 44.2357C59.7437 43.9611 58.9644 43.778 58.012 43.778C57.0595 43.778 56.2803 43.9611 56.2803 44.2357Z" fill="#804000"/>
</svg>
