<svg width="71" height="62" viewBox="0 0 71 62" fill="none" xmlns="http://www.w3.org/2000/svg">
<path d="M29.3166 0.339024C24.5046 0.938168 18.5952 3.18496 13.9098 6.14323C7.78935 9.96277 3.06179 16.3661 0.613596 24.0801C-0.357241 27.1881 -0.14619 35.3889 1.0357 39.0587C4.24368 49.2441 12.8546 57.2202 24.2092 60.5904C27.5438 61.6015 33.9175 62.2006 38.1808 61.9385C41.6842 61.7138 48.0158 60.3283 48.269 59.7666C48.3535 59.6168 48.7333 59.467 49.1554 59.467C51.0971 59.467 58.9482 55.0109 61.4386 52.502C64.9843 48.9071 67.939 44.5259 69.4164 40.6689C71.2314 35.9506 71.5269 28.3115 70.0918 23.3312C66.6727 11.8351 55.4448 2.51092 42.444 0.451363C38.9828 -0.110336 32.9889 -0.147781 29.3166 0.339024ZM34.2974 1.64965C34.5929 1.91177 34.7195 2.1739 34.5929 2.24879C34.4663 2.36113 35.6904 2.36113 37.2521 2.28624C39.3204 2.13645 40.5445 2.24879 41.5998 2.66071C43.4571 3.40963 45.4832 4.49558 46.0319 5.01983C46.8761 5.8811 49.1132 6.77982 49.7886 6.55514C50.8439 6.18067 50.5906 5.61898 49.4087 5.84365C48.4801 5.99344 45.8208 4.68282 44.9766 3.63431C44.85 3.52197 44.0058 3.03517 43.0772 2.58581L41.3888 1.79943H42.7817C43.4993 1.79943 44.1324 1.94922 44.1324 2.09901C44.1324 2.28624 45.1033 2.62326 46.2429 2.88538C47.4248 3.14751 48.269 3.52197 48.1002 3.70921C47.9736 3.89644 48.2268 4.04622 48.6489 4.04622C50.0841 4.04622 52.6167 4.8326 52.3634 5.20707C52.1946 5.3943 52.4479 5.54408 52.9122 5.54408C53.3343 5.54408 54.2629 5.99344 54.9383 6.55514C55.6136 7.11684 56.3312 7.52875 56.5423 7.4913C56.7533 7.41641 56.7111 7.64109 56.3734 7.94066C56.0779 8.27768 55.487 8.5398 55.0227 8.5398C54.5584 8.5398 53.3343 9.06405 52.3212 9.73809C50.6328 10.824 50.464 11.0487 50.464 12.5466C50.464 13.67 50.7172 14.3815 51.3082 14.9057C52.5323 15.9916 51.9835 16.8155 50.0841 16.7406C49.2399 16.7031 46.9605 16.778 44.9766 16.9278C41.7264 17.115 41.5154 17.0776 42.8661 16.6657C46.8339 15.3925 48.7756 13.3704 48.7333 10.6743C48.7333 9.47596 48.6489 9.25129 48.3535 9.85043C47.9736 10.5994 47.9736 10.5994 47.9736 9.81298C47.9314 9.40107 47.7203 8.87682 47.4248 8.61469C47.0449 8.27768 47.1294 8.16534 47.8469 8.16534C48.3112 8.16534 48.9022 8.42746 49.1132 8.76448C49.4509 9.28873 49.5353 9.28873 49.9997 8.76448C50.3373 8.42746 50.8439 8.16534 51.1393 8.16534C51.477 8.16534 51.7303 8.01555 51.7303 7.82832C51.7303 7.60364 51.266 7.60364 50.5484 7.82832C48.9866 8.31512 47.6781 7.86576 43.9636 5.61898C41.1777 3.93388 40.9666 3.85899 37.9697 3.85899C36.0703 3.85899 34.6773 4.04622 34.3396 4.30835C34.0864 4.57047 33.5376 4.79515 33.1155 4.79515C32.1869 4.79515 28.0925 6.33046 28.0925 6.66748C28.0925 6.81726 27.7126 7.04194 27.2905 7.15428C26.8262 7.22918 25.8976 8.16534 25.18 9.13895C23.7026 11.2359 23.4916 13.333 24.5046 15.5048C25.3488 17.3023 26.1508 17.9389 29.0633 19.0623C31.4271 19.9984 31.4693 20.0733 30.3297 20.2606C29.6965 20.3729 28.388 20.635 27.4594 20.8597C26.5307 21.0844 25.18 21.1593 24.4624 21.0469C23.7026 20.9346 22.6896 21.0469 22.1409 21.3091C21.5921 21.6086 19.9881 21.9456 18.5952 22.058L16.0626 22.3201L19.1439 22.2452C20.7901 22.2078 22.1831 22.3201 22.1831 22.4699C22.1831 22.6197 21.8032 22.7695 21.2966 22.7695C20.5369 22.7695 17.962 24.6043 17.962 25.166C17.962 25.6528 18.8484 25.3533 19.6504 24.6418C20.157 24.1924 20.7057 23.9678 20.9168 24.0801C21.17 24.2299 21.3389 24.155 21.3389 23.9303C21.3389 23.7431 21.2122 23.5184 21.0434 23.4061C20.8323 23.3312 20.959 23.3312 21.2544 23.4061C21.5499 23.4435 22.4363 23.2188 23.1539 22.8818C27.797 20.7474 38.1808 20.2231 45.1033 21.7959C47.1294 22.2452 48.6911 22.732 48.5223 22.8818C48.3535 23.0316 48.5645 23.1439 48.9444 23.1439C49.3665 23.1439 50.1685 23.4809 50.7594 23.8929C51.3504 24.3048 52.068 24.6418 52.3634 24.6418C52.9544 24.6418 55.9513 27.4503 55.9513 28.012C55.9513 28.2366 56.1624 28.3864 56.3734 28.3864C57.091 28.3864 56.8377 27.3379 56.0779 26.926C55.4448 26.589 55.4448 26.4767 55.8669 26.2145C56.3312 25.915 56.3312 25.8401 55.7825 25.6528C55.4026 25.5031 55.1071 25.6154 55.0649 25.8775C55.0649 26.1396 54.896 25.9524 54.685 25.4656C54.4739 25.0163 53.6297 24.3422 52.7855 24.0052C51.9835 23.6682 51.3082 23.2563 51.3082 23.069C51.3082 22.9193 51.0549 22.7695 50.7172 22.7695C50.4218 22.7695 49.9152 22.5073 49.6198 22.2078C49.3243 21.8707 48.8178 21.6835 48.4801 21.7959C48.1424 21.9082 47.5937 21.8707 47.1716 21.6835C46.7917 21.4963 45.6098 21.1218 44.5545 20.8597C41.5998 20.1108 41.7264 19.8861 45.1455 19.5865C46.9183 19.4367 48.3535 19.1746 48.3535 18.9499C48.3535 18.7627 47.8469 18.6878 47.2138 18.8001C44.5967 19.212 42.8661 19.3618 38.434 19.624C34.1286 19.8486 33.5376 19.7737 30.4563 18.875C26.193 17.6018 24.3358 15.767 24.2936 12.8461C24.2936 9.21384 28.6834 5.8811 34.213 5.35685C35.7326 5.20707 36.9567 4.90749 36.9567 4.72026C36.9567 4.53303 37.1677 4.49558 37.3788 4.60792C37.632 4.75771 37.7165 5.01983 37.5898 5.20707C37.421 5.3943 37.8431 5.54408 38.5185 5.54408C41.7264 5.54408 45.7786 7.37896 46.8761 9.28873C49.1132 13.1457 45.3565 16.4036 38.7717 16.4036C34.1286 16.4036 32.4402 15.9168 31.3427 14.2691C30.794 13.4078 30.3719 13.1083 30.2874 13.4078C30.1608 13.7074 30.2874 14.007 30.5829 14.0819C30.8362 14.1568 30.9206 14.3815 30.794 14.6061C30.4985 15.018 31.5538 15.8419 33.1577 16.4785C33.7487 16.7031 35.5637 17.0027 37.1677 17.1525L40.1224 17.4146L36.3235 17.4895C33.2422 17.527 32.1869 17.3772 30.8362 16.778C29.9075 16.3661 29.0211 16.0291 28.8101 16.0291C28.0081 16.0291 26.8684 14.3066 26.8262 13.1083C26.8262 11.6104 27.8815 9.6632 28.7257 9.6632C29.0633 9.6632 29.3588 9.51341 29.3588 9.28873C29.3588 8.68959 31.2161 7.82832 33.2422 7.45385C34.8039 7.22918 35.1416 7.26662 34.9728 7.64109C34.8462 7.94066 34.424 8.16534 34.0442 8.16534C33.1155 8.16534 30.3297 10.2623 30.7095 10.6368C30.8784 10.7866 31.5538 10.4496 32.1447 9.92532C34.3396 7.9781 39.3204 7.64109 40.84 9.28873C41.3465 9.85043 41.5998 9.92532 41.5998 9.5883C41.5998 9.28873 41.3465 8.83937 41.0933 8.57725C40.629 8.16534 40.7978 8.12789 42.0219 8.31512C43.3726 8.5398 43.4148 8.5398 42.7395 8.053C41.7264 7.30407 35.6904 6.51769 33.411 6.81726C31.5538 7.07939 28.4724 8.61469 27.0795 10.0002C26.6151 10.4496 26.2775 11.4981 26.193 12.5466C26.0664 14.007 26.2353 14.5312 27.1217 15.4674C29.3166 17.7516 34.6351 18.6504 41.5998 17.864C43.7947 17.6393 47.4248 17.3023 49.6198 17.1525C51.8147 17.0027 53.2921 16.8529 52.9122 16.8529C52.4901 16.8155 52.1524 16.5908 52.1524 16.4036C52.1524 15.7295 52.9544 16.0291 53.672 16.9653C54.0518 17.4895 54.7694 17.9014 55.2337 17.9014C57.1332 17.9014 61.8608 21.0469 61.8608 22.3201C61.8608 22.5822 62.0296 22.732 62.2406 22.5822C62.4939 22.4699 62.2829 21.7959 61.7763 21.0469C60.4678 19.0623 61.1432 19.0997 63.2537 21.1218C65.322 23.069 66.4195 25.8775 65.9551 27.9371C65.8285 28.5362 65.5753 29.5473 65.4486 30.109L65.1954 31.1949L65.8285 30.2588C66.6727 29.023 66.7149 24.7916 65.8707 23.3686C65.5331 22.8069 65.2376 22.1703 65.2376 21.9831C65.2376 21.7959 64.6044 21.1218 63.8868 20.4852C62.4939 19.3244 60.9743 18.6129 56.7955 17.1525C53.3765 15.9542 51.3082 14.344 51.3082 12.8836C51.3082 8.57725 58.4839 7.64109 60.4256 11.7228C60.8477 12.6964 61.1854 12.921 61.8608 12.7713C62.4517 12.6215 62.705 12.7713 62.705 13.1832C62.705 13.5202 62.9582 13.7823 63.2537 13.7823C63.5914 13.7823 63.8446 14.0444 63.8446 14.344C63.8446 14.6436 63.4647 14.9057 62.9582 14.9057L62.0718 14.9431L62.9582 15.3925C64.6888 16.2912 65.9551 17.3772 66.2506 18.201C66.6727 19.2869 65.6597 19.3244 64.5622 18.2384C64.1401 17.7891 62.9582 17.115 61.9452 16.6657C60.9321 16.2538 60.299 15.8044 60.51 15.6921C60.7211 15.5797 60.9321 15.018 60.9321 14.4563C60.9321 13.8946 60.7633 13.5202 60.5522 13.6325C60.3412 13.7449 60.1723 14.0444 60.1723 14.3066C60.1723 14.9806 57.893 15.3551 56.5 14.8683C54.4739 14.1942 53.7564 12.7713 54.9383 11.7602C55.7403 11.0113 56.1624 11.0113 56.9644 11.7602C57.3442 12.0598 57.8086 12.2096 58.0618 12.0972C58.2729 11.9849 58.4839 12.0598 58.4839 12.247C58.4839 12.4717 57.9352 12.6589 57.2176 12.6589C55.6558 12.6589 55.5714 13.2206 57.091 13.5576C58.6528 13.9321 59.6236 13.0708 58.8638 11.9849C58.3151 11.1985 56.7533 10.4121 55.7825 10.4121C54.8116 10.4121 52.9966 11.91 52.9966 12.6964C52.9966 13.7823 54.896 15.1678 57.3442 15.8793C59.9613 16.6282 63.8024 18.4257 65.1532 19.5491C67.2215 21.1967 68.8677 25.5779 68.4034 28.1243C67.8968 30.6707 66.2084 33.5915 64.9421 34.0783C64.2667 34.3404 63.6336 34.7149 63.4647 34.9396C63.2537 35.1642 63.1271 35.0519 63.1271 34.7149C63.1271 34.3779 63.507 33.6664 64.0135 33.1421C64.6466 32.3932 64.7733 31.9813 64.4356 31.4945C64.0557 30.8953 64.0135 30.9702 63.9713 31.8315C63.9713 32.3932 63.6758 32.9924 63.2959 33.1796C61.9452 33.8536 62.8738 38.497 64.3934 38.497C65.1532 38.497 66.926 36.8868 66.926 36.2127C66.926 35.6136 65.9551 35.8757 64.9421 36.6996C64.3934 37.1489 63.8446 37.3736 63.6758 37.2613C63.2537 36.8493 64.1823 34.9396 64.731 35.0145C65.0265 35.0894 65.2376 34.9396 65.2376 34.7149C65.2376 34.4153 65.7441 34.3404 66.7571 34.4902C67.8124 34.64 68.1923 34.6026 68.0657 34.2655C67.939 34.0034 67.6436 33.8536 67.3903 33.8911C67.137 33.966 66.926 33.8162 66.926 33.6289C66.926 33.4043 67.137 33.2545 67.3481 33.2545C67.6013 33.2545 67.7702 32.8426 67.7702 32.3558C67.7702 31.869 68.0657 31.2698 68.4034 31.0077C68.7832 30.7456 68.9943 30.2962 68.8677 30.0715C68.7832 29.8094 68.8677 29.3975 69.0365 29.1354C69.7119 28.1992 69.4586 33.0298 68.741 34.64C68.4034 35.5013 68.1923 36.6621 68.2767 37.1489C68.4034 37.6732 68.3611 38.0102 68.1501 37.8978C67.9812 37.8229 67.6858 37.9727 67.4747 38.2349C66.3773 39.8451 62.8738 40.594 62.4517 39.3208C62.3251 38.9838 61.9874 38.16 61.6497 37.5608C61.3542 36.9242 60.9743 35.4264 60.8055 34.1906C60.3412 30.1839 58.3995 25.6154 56.4578 23.7805C55.1071 22.5822 52.9966 21.4588 52.9966 21.9831C52.9966 22.2078 53.5031 22.6197 54.1785 22.9193C55.5292 23.5558 57.3865 25.5779 57.8086 26.8886C58.1462 27.8622 58.7372 29.2477 59.3703 30.3337C59.5392 30.6707 59.7924 32.2434 59.9191 33.8911C60.1301 36.2127 60.0879 36.5498 59.7502 35.5762C59.497 34.9021 59.1171 34.4528 58.906 34.5651C58.695 34.6774 58.3151 34.0409 58.0196 33.1796C57.5553 31.6068 55.3604 29.3226 54.6428 29.6971C54.4739 29.8094 54.2207 29.7345 54.0518 29.5098C53.9252 29.3226 53.4187 29.1354 52.9544 29.1354C52.4901 29.1354 52.2368 29.2852 52.3634 29.5098C52.4901 29.6971 52.9544 29.8843 53.3765 29.8843C55.9091 29.8843 60.7633 38.3098 62.8738 46.3233C63.4647 48.6075 63.4647 48.7948 62.6627 49.7684C60.7633 52.1649 54.2629 56.6211 50.0419 58.4185C48.3112 59.1674 43.4148 60.4406 40.8822 60.7776C39.1938 61.0023 39.0672 60.9649 39.0672 60.141C39.0672 59.6542 39.3627 58.8679 39.7425 58.4185C40.2913 57.707 40.2913 57.4823 39.827 56.8832C39.236 56.1717 39.236 56.1717 38.7295 56.8458C38.3918 57.3326 38.3918 57.5947 38.7295 57.6696C38.9828 57.7445 39.0672 58.1564 38.8983 58.6432C38.7295 59.13 38.3918 59.3547 38.1386 59.2423C37.8431 59.0551 37.7587 59.2049 37.9275 59.5794C38.1386 60.0662 37.9697 60.2159 37.2521 60.2534C36.3657 60.2908 36.3657 60.2908 37.3788 60.5904C38.3074 60.8525 38.2652 60.89 36.83 60.9274C35.6904 60.9649 35.3105 60.8525 35.5215 60.5155C35.7326 60.2159 35.6059 60.1785 35.015 60.4032C34.5929 60.553 33.7065 60.7776 33.1155 60.8525C32.0603 61.0398 31.6804 60.6279 31.3005 59.0177C31.3005 58.9053 31.1316 58.6432 30.9206 58.4934C30.4563 58.0815 30.5407 57.5198 31.0472 57.7819C31.3849 57.9692 31.6804 56.9581 31.5115 56.0219C31.5115 55.9096 32.0603 55.9096 32.7356 56.0968C34.2974 56.4713 34.3396 56.1717 32.9467 54.7488C32.3557 54.1496 31.8914 53.8875 31.8914 54.1496C31.8914 54.4117 31.4271 55.2356 30.8784 56.0219C29.9075 57.4075 29.7809 59.5794 30.6673 60.0662C30.8784 60.1785 31.0472 60.4406 31.0472 60.6279C31.0472 61.7512 23.0273 59.467 17.3711 56.7334C15.2606 55.7224 10.4064 51.9777 8.71797 50.0679C7.15619 48.3454 7.11398 48.2331 7.5783 46.6603C7.83156 45.7616 8.16924 44.9752 8.29587 44.8629C8.46471 44.7505 8.71797 44.0765 8.88682 43.365C9.05566 42.6535 9.35113 41.8297 9.56218 41.4927C9.73102 41.1931 10.4064 39.92 11.0395 38.6842C11.6727 37.4485 13.0234 35.314 14.0365 33.9285C16.0626 31.12 16.1048 31.0077 15.2184 31.0077C14.8807 31.0077 14.5852 31.2698 14.5852 31.5694C14.5852 31.869 14.4164 32.1311 14.2475 32.1311C14.0365 32.1311 13.9521 31.5694 14.0787 30.8953C14.3742 28.7235 8.29587 39.8825 7.70493 42.6161C7.24061 44.6008 6.98735 45.0501 6.31199 45.0501C5.38336 45.0501 5.38336 44.0391 6.43862 40.7438C7.02956 38.9463 8.8024 35.6885 9.51997 35.1268C10.1109 34.64 12.8968 28.4613 12.8968 27.5626C12.8968 24.0426 8.76019 22.9193 5.9743 25.6903C5.00347 26.7013 4.58136 29.6596 5.29894 30.446C6.86072 32.1311 11.6305 29.4349 10.322 27.6001C10.0265 27.1507 9.77323 27.1881 8.8024 27.7124C8.16924 28.0494 7.5783 28.4988 7.49388 28.7235C7.24061 29.3975 8.33808 29.2103 8.92903 28.4988C9.2245 28.1243 9.60439 27.9371 9.77323 28.0869C10.533 28.7609 7.62051 30.446 6.39641 30.0341C5.1301 29.6222 5.29894 28.686 6.90293 27.2256C8.12703 26.1396 8.88682 25.7652 9.89986 25.7652C10.6596 25.7652 11.1662 25.915 10.9973 26.1022C10.8707 26.3269 11.0395 26.589 11.3772 26.7762C12.137 27.1507 12.3903 28.7983 11.8415 29.4349C9.85765 31.7566 9.14008 32.1685 6.73409 32.3932C5.08789 32.543 4.41252 32.5055 4.58136 32.2434C4.75021 32.0187 4.58136 31.7566 4.24368 31.6068C3.4839 31.3447 3.39948 31.9064 4.15926 32.3932C5.08789 33.0672 7.07177 33.1796 8.50692 32.6553C10.1953 32.0187 10.322 32.3932 9.09787 34.3779C8.63355 35.0894 8.16924 35.9881 8.0004 36.3251C7.87377 36.6996 7.5783 36.9991 7.36725 36.9991C7.15619 36.9991 6.98735 37.2238 6.98735 37.5234C6.98735 37.7855 6.73409 38.2349 6.39641 38.4595C5.88988 38.834 5.84767 38.7591 6.01652 38.16C6.3542 36.9617 5.84767 37.2238 5.08789 38.6468C4.53915 39.6204 4.49694 40.1072 4.83463 40.7063C5.08789 41.1182 5.29894 41.9046 5.29894 42.5038C5.25673 43.4025 5.21452 43.4399 4.83463 42.8782C4.58136 42.5412 4.24368 42.3165 4.03263 42.4289C3.39948 42.7659 3.06179 40.8561 3.35727 38.6468C3.52611 37.2613 3.4839 36.6621 3.18842 36.8119C2.97737 36.9242 2.76632 37.3361 2.72411 37.6732C2.63969 38.7217 1.92212 35.8383 1.71106 33.7038C1.62664 32.6179 1.66885 30.6332 1.87991 29.3226C2.09096 27.7873 2.04875 26.7762 1.75327 26.5141C1.50001 26.2894 1.50001 26.1396 1.71106 26.1396C1.96433 26.1396 2.17538 25.5031 2.2598 24.7541C2.30201 23.9678 2.55527 23.1814 2.76632 22.9941C3.01958 22.7695 3.18842 22.395 3.18842 22.1329C3.18842 21.8707 4.03263 20.4478 5.08789 18.9499C6.14315 17.4521 6.98735 15.8793 6.98735 15.43C6.98735 14.9806 7.28282 14.4189 7.62051 14.1568C7.95819 13.8946 8.25366 13.4827 8.25366 13.2206C8.25366 12.9585 8.50692 12.5466 8.84461 12.2845C9.35113 11.9474 9.51997 12.0598 9.73102 13.1832C10.0265 14.5687 9.73102 15.43 9.05566 15.0929C8.84461 14.9431 8.67576 15.1304 8.67576 15.4674C8.67576 16.1789 7.24061 18.7627 6.05873 20.1857C5.59441 20.7474 5.29894 21.4214 5.38336 21.6835C5.46778 21.9456 5.9743 21.5337 6.52304 20.7474C7.28282 19.6614 7.62051 19.4367 7.91598 19.8486C8.21145 20.1857 8.25366 20.1482 8.08482 19.624C7.91598 19.2495 8.0004 18.7252 8.21145 18.5006C8.4225 18.2759 8.8024 17.4895 9.01345 16.778L9.43555 15.4674L9.51997 17.3397L9.60439 19.212L9.98428 17.1525C10.1953 16.0291 10.6174 14.681 10.8707 14.1942C11.335 13.4453 11.2928 13.2581 10.6174 12.8461C10.0687 12.4717 9.89986 12.0598 10.1109 11.3857L10.3642 10.4121L11.4616 11.2734C12.5169 12.0598 12.5591 12.247 12.3059 14.7185L12.0948 17.3397L12.8968 15.0929C13.3189 13.8572 13.6988 13.1083 13.6988 13.4453C13.741 14.3815 14.8807 16.1789 16.0626 17.1525C16.6535 17.6393 17.1178 17.864 17.1178 17.6393C17.1178 17.4521 16.7379 16.9653 16.2314 16.5533C12.5169 13.5951 14.2053 8.5398 19.6082 6.21812C20.6635 5.76876 21.6343 5.3194 21.761 5.16962C21.8876 5.05728 22.774 4.72026 23.7448 4.49558C24.7157 4.23346 25.6443 3.85899 25.8131 3.63431C26.2353 2.99772 23.576 3.63431 21.5077 4.64537C20.4947 5.13217 19.6082 5.3943 19.4816 5.20707C19.355 5.05728 19.9881 4.68282 20.9168 4.42069C21.8032 4.15856 22.5207 3.74665 22.4785 3.52197C22.4363 3.29729 22.774 3.11006 23.2383 3.11006C23.7026 3.11006 24.2092 2.96028 24.3358 2.77304C24.5046 2.62326 26.193 2.24879 28.1347 2.02411C30.0764 1.76199 31.3849 1.46242 31.0472 1.35008C30.7095 1.27518 31.1739 1.20029 32.1025 1.20029C33.0311 1.23774 34.0019 1.42497 34.2974 1.64965ZM40.8822 4.68282C41.5154 4.79515 42.0219 5.01983 42.0219 5.16962C42.0219 5.58153 38.9828 4.8326 38.434 4.34579C38.1386 4.04622 38.2652 4.00878 38.8561 4.19601C39.3204 4.34579 40.2069 4.57047 40.8822 4.68282ZM18.8062 5.46919C18.8062 5.8811 16.9912 6.85471 16.3158 6.70493C16.0204 6.66748 15.8937 6.77982 16.0626 7.04194C16.2314 7.26662 16.0626 7.67853 15.7249 7.90321C15.3872 8.16534 14.7963 9.21384 14.3742 10.2998C13.6144 12.2096 13.5722 12.2096 12.6013 11.6479C12.0526 11.3108 11.3772 10.7117 11.124 10.2623C10.8707 9.81298 10.8285 9.5883 10.9973 9.73809C11.2084 9.88787 11.9682 9.47596 12.728 8.76448C13.4877 8.053 14.2053 7.56619 14.2897 7.64109C14.3742 7.71598 14.7963 7.45385 15.2184 7.04194C15.6405 6.63003 16.2314 6.29301 16.4847 6.29301C16.7801 6.29301 17.2445 6.03089 17.5399 5.73132C18.0887 5.13217 18.8062 4.98239 18.8062 5.46919ZM67.939 40.0697C67.7702 40.5565 67.1793 41.5676 66.5883 42.3165C66.0396 43.1029 65.4486 44.2637 65.2798 44.9378C64.9843 46.211 64.2245 46.7352 63.8446 45.8739C63.4225 44.9003 64.4356 41.9046 65.3642 41.3055C65.8707 41.0059 66.0396 40.7438 65.7863 40.7438C65.2376 40.7438 63.5492 42.2042 63.5492 42.691C63.5492 43.4774 62.7472 42.8408 62.4939 41.8672C62.3251 41.2306 62.0296 40.8187 61.8185 40.931C61.6075 41.0808 61.5653 40.8936 61.6919 40.5565C61.8608 40.1821 62.2406 40.0323 62.6627 40.2195C64.2245 40.7812 64.731 40.7438 66.124 40.0323C68.0235 39.0587 68.3189 39.0587 67.939 40.0697Z" fill="#804000"/>
<path d="M25.1373 5.54427C24.7997 5.7315 23.3223 6.36809 21.8871 6.89234C20.4098 7.45404 19.2279 8.05319 19.2279 8.24042C19.2279 8.3902 18.9746 8.53999 18.7214 8.53999C17.6661 8.53999 16.0621 11.1987 16.1043 12.8838C16.1465 14.7561 16.6953 15.4301 18.848 16.4412C20.8741 17.3399 21.3384 17.3399 21.3384 16.4412C21.3384 15.6548 20.1987 14.6438 19.7766 15.0557C19.6078 15.2055 19.7344 15.4676 20.0721 15.6548C21.1274 16.254 19.7766 16.1042 18.4259 15.4676C15.8089 14.3067 16.1888 10.974 19.1013 9.02679C20.7053 7.9034 24.3353 6.2932 25.1795 6.2932C25.5594 6.2932 26.1082 6.03108 26.4036 5.7315C26.8258 5.28215 26.8258 5.16981 26.3614 5.20725C26.0238 5.20725 25.475 5.35704 25.1373 5.54427Z" fill="#804000"/>
<path d="M44.3863 9.85051C45.1883 10.562 45.3572 11.0114 45.1461 11.6479C44.6818 12.996 42.5291 14.1569 40.6296 14.1569L39.701 14.1194L40.6718 13.4454C41.1783 13.0335 41.6004 12.322 41.5582 11.8352C41.5582 11.0114 41.516 11.0114 41.1783 11.7603C40.7562 12.7339 38.9412 13.7824 37.6749 13.7824C37.1684 13.7824 36.493 13.9696 36.2397 14.1943C35.5644 14.7934 34.2136 14.3066 33.5805 13.2207C33.1162 12.4343 33.1162 12.2096 33.7493 11.6105C34.5935 10.7492 37.506 9.85051 38.1814 10.1875C38.8568 10.562 38.7301 11.5356 38.0126 11.5356C37.6749 11.5356 37.3794 11.6854 37.3794 11.9101C37.3794 12.5467 38.4769 12.322 39.3211 11.4982C40.0809 10.7492 40.0809 10.7118 39.2789 10.1875C37.6749 9.13903 33.7071 9.92541 32.7363 11.5356C31.1745 14.1569 35.4377 15.9168 40.9251 14.9058C43.5421 14.419 45.8215 12.8837 45.8215 11.5731C45.8215 10.3373 44.8929 8.91435 44.0909 8.91435C43.4577 8.91435 43.4999 9.06414 44.3863 9.85051Z" fill="#804000"/>
<path d="M22.3095 14.6439C22.6472 15.1307 23.0271 15.917 23.1537 16.4413C23.3226 17.2651 23.3226 17.2651 23.407 16.5162C23.4492 15.3928 22.7316 13.7826 22.1407 13.7826C21.8452 13.7826 21.8874 14.0822 22.3095 14.6439Z" fill="#804000"/>
<path d="M18.6372 18.5377C19.186 18.7624 20.0302 18.8748 20.5789 18.725C21.5075 18.5377 21.5075 18.5377 20.8322 19.1369C20.4523 19.5113 19.397 19.8109 18.384 19.8484C17.4553 19.8858 16.5689 20.0356 16.4423 20.2228C16.1468 20.6347 19.4814 20.5973 20.4101 20.1854C20.79 19.9981 21.5075 19.736 21.9718 19.5862C22.6472 19.399 22.6894 19.2867 22.1829 19.0245C21.6342 18.725 21.6764 18.6501 22.3095 18.6501C22.6894 18.6501 23.0271 18.5377 23.0271 18.3505C23.0271 18.2007 21.8452 18.0884 20.3679 18.0884C18.0463 18.0884 17.793 18.1258 18.6372 18.5377Z" fill="#804000"/>
<path d="M49.6191 18.8374C49.6191 18.9497 50.4633 19.2119 51.5186 19.4365C52.5739 19.6612 53.4181 19.9982 53.4181 20.148C53.4181 20.2978 53.798 20.5225 54.2623 20.6348C54.7266 20.7472 55.1065 20.6723 55.1065 20.4476C55.1065 20.2604 55.8663 20.8221 56.8371 21.7208C58.9054 23.7054 60.9737 27.3752 61.5647 30.296C61.9023 31.8313 62.24 32.5054 62.7043 32.5054C63.1264 32.5054 63.1687 32.393 62.8732 32.2058C62.3667 31.9437 61.6069 28.0118 61.7757 26.7012C61.9446 25.6152 60.9737 23.8178 60.3406 24.0425C60.0451 24.1548 59.7074 23.9676 59.5808 23.6306C59.4119 23.2186 59.4964 23.1063 59.9607 23.2935C60.2983 23.4059 60.5938 23.3684 60.5938 23.2186C60.5938 22.7693 58.6099 20.897 58.1456 20.897C57.8924 20.897 57.6391 20.7097 57.5547 20.4851C57.217 19.6238 49.6191 18.051 49.6191 18.8374Z" fill="#804000"/>
<path d="M10.6171 20.2982C11.2503 21.2343 13.994 22.3203 14.4583 21.8709C14.6271 21.7586 14.1206 21.5339 13.3608 21.4215C12.6432 21.2718 11.6724 20.785 11.2503 20.2982C10.195 19.1373 9.73072 19.1373 10.6171 20.2982Z" fill="#804000"/>
<path d="M9.52051 22.3577C9.52051 22.5449 10.1537 22.807 10.9557 22.9194C11.7577 23.0692 12.6019 23.4062 12.8973 23.7058C13.5727 24.4172 14.2059 24.4172 13.9104 23.7432C13.7837 23.4436 12.9395 22.9194 12.0109 22.6198C10.1115 21.9458 9.52051 21.8709 9.52051 22.3577Z" fill="#804000"/>
<path d="M14.2896 26.9258C14.2052 29.622 14.3741 30.0339 15.6826 30.4083C16.2735 30.5581 16.7801 30.4083 17.3288 29.8841C18.0042 29.2475 18.0042 29.1351 17.4132 29.1351C17.0333 29.1351 16.6534 29.2849 16.4846 29.5096C16.1891 29.9215 15.0072 29.5845 15.0072 29.0977C15.0072 28.9105 15.3449 28.4611 15.767 28.0866C17.9619 26.0271 18.0042 25.9148 16.8645 25.8399C16.1891 25.8024 15.8936 25.9148 16.1047 26.1769C16.2313 26.4016 16.1047 26.7386 15.8092 26.9258C15.3871 27.1505 15.0916 26.8884 14.7962 25.8399C14.3319 24.4918 14.3319 24.5292 14.2896 26.9258Z" fill="#804000"/>
<path d="M2.7243 26.9636C2.7243 27.4504 2.63988 28.087 2.59767 28.3866C2.55546 28.6862 2.63988 29.4351 2.80872 30.0717C3.01977 31.0079 3.10419 30.8581 3.1464 29.2479C3.1464 28.1994 3.31525 27.076 3.44188 26.739C3.56851 26.4019 3.48409 26.1398 3.23083 26.1398C2.97756 26.1398 2.76651 26.5143 2.7243 26.9636Z" fill="#804000"/>
<path d="M30.4136 33.5911C28.472 33.7784 27.8388 33.9656 27.7544 34.4524C27.67 34.8269 27.8388 35.1265 28.0921 35.1265C28.3453 35.1265 28.472 35.2762 28.3031 35.4635C27.9232 36.0252 30.5403 40.0319 32.3553 41.6796C33.6638 42.8779 34.0015 43.477 34.0015 44.563C34.0015 45.8736 33.4106 46.323 31.6377 46.3604C31.1734 46.3604 30.0759 43.4396 29.5694 41.0056C29.4428 40.1443 29.1473 39.6949 28.8519 39.8447C28.1343 40.2566 29.6961 46.6225 30.5403 46.7723C30.7091 46.8098 32.6086 46.8846 34.7613 46.9221C38.6446 46.997 38.7291 46.9595 39.1512 46.0234C39.4044 45.4991 39.6155 43.477 39.6577 41.6047C39.6577 39.6949 39.7843 38.1222 39.911 38.1222C40.3331 38.1222 42.1481 34.752 41.8526 34.4899C41.5149 34.1903 41.0084 34.078 37.3783 33.6286C34.4658 33.2541 34.3814 33.2541 30.4136 33.5911ZM38.1381 35.089C38.2225 35.2762 38.5602 35.3511 38.8979 35.2388C39.6155 35.0141 39.6999 36.3247 39.0245 37.4856C38.0959 39.0209 35.1834 41.1553 34.3392 40.8932C33.3261 40.6311 30.4981 38.1222 31.1734 38.1222C31.5111 38.1222 31.5533 38.0098 31.2156 37.8226C30.5825 37.4856 29.7805 36.0626 29.7805 35.3511C29.7805 35.0516 30.287 34.7145 30.9624 34.6397C32.7774 34.3401 37.9693 34.6771 38.1381 35.089ZM39.1512 40.5562C39.2778 40.6685 39.0245 41.9792 38.6446 43.477C38.0115 45.8736 37.8004 46.1732 36.914 46.2106C36.3653 46.2106 35.6899 46.0983 35.4367 45.911C34.9301 45.574 34.6769 42.9902 35.1834 42.9902C35.3522 42.9902 36.1542 42.3911 36.9562 41.6796C38.4758 40.369 38.7713 40.2192 39.1512 40.5562Z" fill="#804000"/>
<path d="M36.3656 56.022C36.2389 56.1343 36.1123 56.4339 36.1123 56.7335C36.1123 57.1079 36.3234 57.1454 36.9143 56.8832C37.3364 56.6586 37.8007 56.5837 37.8851 56.696C38.0118 56.8083 38.2228 56.6586 38.3072 56.3964C38.5183 55.9096 36.8299 55.5726 36.3656 56.022Z" fill="#804000"/>
</svg>
