<svg xmlns="http://www.w3.org/2000/svg" width="48.003" height="46.745" viewBox="0 0 48.003 46.745">
  <g>
    <path d="M47.273,0H24.379a.728.728,0,0,0-.728.729V27.717a.729.729,0,0,0,.728.727H47.273A.729.729,0,0,0,48,27.717V.729A.73.73,0,0,0,47.273,0ZM45.7,1.455,35.826,13.1,25.95,1.455Zm-20.6,1.254,9.765,11.514L25.106,25.735Zm.844,24.279,9.876-11.641L45.7,26.988Zm20.6-1.254L36.78,14.222,46.546,2.708Z" fill="#1a171b"/>
    <path d="M47.273,30.869H9.5a.723.723,0,0,0-.514.213L5.146,34.92H.759a.727.727,0,0,0-.727.723L0,41.1a.724.724,0,0,0,.727.731h6.56a5.631,5.631,0,0,0,11.169,0H30.881a5.63,5.63,0,0,0,11.168,0h5.226A.727.727,0,0,0,48,41.108V31.6A.732.732,0,0,0,47.273,30.869Zm-34.4,14.42a4.182,4.182,0,1,1,4.183-4.182A4.186,4.186,0,0,1,12.872,45.289Zm23.591,0a4.182,4.182,0,1,1,4.182-4.182A4.186,4.186,0,0,1,36.463,45.289ZM46.546,40.38h-4.5a5.63,5.63,0,0,0-11.168,0H18.456a5.631,5.631,0,0,0-11.169,0H1.458l.023-4.008H5.446a.723.723,0,0,0,.514-.213L9.8,32.323H46.545V40.38Z" fill="#1a171b"/>
    <circle cx="12.872" cy="41.107" r="0.727" fill="#1a171b"/>
    <circle cx="36.463" cy="41.107" r="0.727" fill="#1a171b"/>
    <path d="M.758,32.494H3.507a.723.723,0,0,0,.514-.213l3.837-3.838H20.173a.728.728,0,0,0,.727-.727V6.484a.727.727,0,0,0-.727-.727H9.9a.723.723,0,0,0-.514.213L.213,15.144A.732.732,0,0,0,0,15.66L.03,31.767A.729.729,0,0,0,.758,32.494ZM10.2,7.21h9.243V26.987H7.557a.725.725,0,0,0-.514.215L3.206,31.038H1.484l-.028-15.08Z" fill="#1a171b"/>
    <path d="M5.053,20.789H16.3a.728.728,0,0,0,.727-.729v-9.7a.727.727,0,0,0-.727-.727H11.842a.723.723,0,0,0-.514.213L4.539,16.638a.724.724,0,0,0-.213.514V20.06A.729.729,0,0,0,5.053,20.789Zm.728-3.336,6.363-6.363h3.424v8.244H5.781Z" fill="#1a171b"/>
    <path d="M16.3,23.078H12.872a.728.728,0,1,0,0,1.456H16.3a.728.728,0,0,0,0-1.456Z" fill="#1a171b"/>
  </g>
</svg>
