<?xml version="1.0" encoding="UTF-8"?>
<svg xmlns="http://www.w3.org/2000/svg" xmlns:xlink="http://www.w3.org/1999/xlink" width="20px" height="22px" viewBox="0 0 20 22" version="1.1">
<g id="surface1">
<path style=" stroke:none;fill-rule:nonzero;fill:rgb(10.196079%,9.019608%,10.588235%);fill-opacity:1;" d="M 19.695312 0 L 10.15625 0 C 10.078125 0 10 0.0351562 9.941406 0.101562 C 9.886719 0.164062 9.855469 0.25 9.855469 0.339844 L 9.855469 12.972656 C 9.855469 13.160156 9.992188 13.3125 10.15625 13.3125 L 19.695312 13.3125 C 19.863281 13.3125 20 13.160156 20 12.972656 L 20 0.339844 C 20 0.152344 19.863281 0 19.695312 0 Z M 19.042969 0.679688 L 14.925781 6.132812 L 10.8125 0.679688 Z M 10.457031 1.269531 L 14.527344 6.65625 L 10.460938 12.046875 Z M 10.808594 12.632812 L 14.925781 7.183594 L 19.042969 12.632812 Z M 19.394531 12.046875 L 15.324219 6.65625 L 19.394531 1.265625 Z M 19.394531 12.046875 "/>
<path style=" stroke:none;fill-rule:nonzero;fill:rgb(10.196079%,9.019608%,10.588235%);fill-opacity:1;" d="M 19.695312 14.449219 L 3.957031 14.449219 C 3.878906 14.449219 3.800781 14.484375 3.746094 14.550781 L 2.144531 16.34375 L 0.316406 16.34375 C 0.148438 16.34375 0.015625 16.496094 0.0117188 16.683594 L 0 19.238281 C 0 19.328125 0.03125 19.417969 0.0859375 19.480469 C 0.144531 19.542969 0.222656 19.582031 0.304688 19.582031 L 3.035156 19.582031 C 3.1875 20.894531 4.183594 21.878906 5.363281 21.878906 C 6.542969 21.878906 7.539062 20.894531 7.691406 19.582031 L 12.867188 19.582031 C 13.019531 20.894531 14.015625 21.878906 15.195312 21.878906 C 16.375 21.878906 17.371094 20.894531 17.519531 19.582031 L 19.699219 19.582031 C 19.863281 19.578125 20 19.429688 20 19.242188 L 20 14.792969 C 20 14.601562 19.863281 14.449219 19.695312 14.449219 Z M 5.363281 21.199219 C 4.402344 21.199219 3.621094 20.324219 3.621094 19.242188 C 3.621094 18.160156 4.402344 17.285156 5.363281 17.285156 C 6.328125 17.285156 7.105469 18.160156 7.105469 19.242188 C 7.105469 20.324219 6.324219 21.199219 5.363281 21.199219 Z M 15.191406 21.199219 C 14.230469 21.199219 13.449219 20.324219 13.449219 19.242188 C 13.449219 18.160156 14.230469 17.285156 15.191406 17.285156 C 16.15625 17.285156 16.9375 18.160156 16.9375 19.242188 C 16.933594 20.324219 16.15625 21.199219 15.191406 21.199219 Z M 19.394531 18.902344 L 17.519531 18.902344 C 17.367188 17.585938 16.371094 16.601562 15.191406 16.601562 C 14.011719 16.601562 13.015625 17.585938 12.867188 18.902344 L 7.691406 18.902344 C 7.539062 17.585938 6.542969 16.605469 5.363281 16.605469 C 4.183594 16.605469 3.1875 17.585938 3.035156 18.902344 L 0.609375 18.902344 L 0.617188 17.023438 L 2.269531 17.023438 C 2.347656 17.023438 2.425781 16.988281 2.484375 16.925781 L 4.082031 15.128906 L 19.394531 15.128906 Z M 19.394531 18.902344 "/>
<path style=" stroke:none;fill-rule:nonzero;fill:rgb(10.196079%,9.019608%,10.588235%);fill-opacity:1;" d="M 5.667969 19.242188 C 5.667969 19.054688 5.53125 18.902344 5.363281 18.902344 C 5.195312 18.902344 5.058594 19.054688 5.058594 19.242188 C 5.058594 19.429688 5.195312 19.582031 5.363281 19.582031 C 5.53125 19.582031 5.667969 19.429688 5.667969 19.242188 Z M 5.667969 19.242188 "/>
<path style=" stroke:none;fill-rule:nonzero;fill:rgb(10.196079%,9.019608%,10.588235%);fill-opacity:1;" d="M 15.496094 19.242188 C 15.496094 19.054688 15.359375 18.902344 15.191406 18.902344 C 15.027344 18.902344 14.890625 19.054688 14.890625 19.242188 C 14.890625 19.429688 15.027344 19.582031 15.191406 19.582031 C 15.359375 19.582031 15.496094 19.429688 15.496094 19.242188 Z M 15.496094 19.242188 "/>
<path style=" stroke:none;fill-rule:nonzero;fill:rgb(10.196079%,9.019608%,10.588235%);fill-opacity:1;" d="M 0.316406 15.210938 L 1.460938 15.210938 C 1.542969 15.210938 1.617188 15.175781 1.675781 15.109375 L 3.273438 13.3125 L 8.40625 13.3125 C 8.574219 13.3125 8.707031 13.160156 8.707031 12.972656 L 8.707031 3.035156 C 8.707031 2.847656 8.574219 2.695312 8.40625 2.695312 L 4.125 2.695312 C 4.042969 2.695312 3.96875 2.730469 3.910156 2.792969 L 0.0898438 7.089844 C 0.03125 7.152344 0 7.238281 0 7.332031 L 0.0117188 14.871094 C 0.0117188 15.058594 0.148438 15.210938 0.316406 15.210938 Z M 4.25 3.375 L 8.101562 3.375 L 8.101562 12.632812 L 3.148438 12.632812 C 3.066406 12.632812 2.992188 12.667969 2.933594 12.734375 L 1.335938 14.527344 L 0.617188 14.527344 L 0.605469 7.46875 Z M 4.25 3.375 "/>
<path style=" stroke:none;fill-rule:nonzero;fill:rgb(10.196079%,9.019608%,10.588235%);fill-opacity:1;" d="M 2.105469 9.730469 L 6.792969 9.730469 C 6.960938 9.730469 7.09375 9.578125 7.09375 9.390625 L 7.09375 4.847656 C 7.09375 4.660156 6.957031 4.507812 6.792969 4.507812 L 4.933594 4.507812 C 4.855469 4.507812 4.777344 4.542969 4.71875 4.609375 L 1.890625 7.789062 C 1.835938 7.851562 1.800781 7.9375 1.800781 8.027344 L 1.800781 9.390625 C 1.800781 9.578125 1.9375 9.730469 2.105469 9.730469 Z M 2.410156 8.167969 L 5.058594 5.191406 L 6.488281 5.191406 L 6.488281 9.050781 L 2.410156 9.050781 Z M 2.410156 8.167969 "/>
<path style=" stroke:none;fill-rule:nonzero;fill:rgb(10.196079%,9.019608%,10.588235%);fill-opacity:1;" d="M 6.792969 10.800781 L 5.363281 10.800781 C 5.195312 10.800781 5.058594 10.953125 5.058594 11.144531 C 5.058594 11.332031 5.195312 11.484375 5.363281 11.484375 L 6.792969 11.484375 C 6.960938 11.484375 7.09375 11.332031 7.09375 11.144531 C 7.09375 10.953125 6.960938 10.800781 6.792969 10.800781 Z M 6.792969 10.800781 "/>
</g>
</svg>
