<?xml version="1.0" encoding="UTF-8"?>
<svg xmlns="http://www.w3.org/2000/svg" xmlns:xlink="http://www.w3.org/1999/xlink" width="22px" height="22px" viewBox="0 0 22 22" version="1.1">
<g id="surface1">
<path style=" stroke:none;fill-rule:nonzero;fill:rgb(0%,0%,0%);fill-opacity:1;" d="M 21.265625 16.667969 L 11.367188 21.070312 L 11.367188 7.785156 L 21.265625 4.410156 Z M 21.632812 3.539062 L 21.609375 3.550781 L 20.527344 3.917969 L 11 7.160156 L 10.644531 7.277344 L 10.644531 21.835938 L 11 22 L 11.355469 21.835938 L 21.96875 17.117188 L 21.96875 3.667969 Z M 21.632812 3.539062 "/>
<path style=" stroke:none;fill-rule:nonzero;fill:rgb(0%,0%,0%);fill-opacity:1;" d="M 11 7.160156 L 8.488281 6.300781 L 7.402344 5.933594 L 5.042969 5.117188 L 5.03125 5.117188 L 3.910156 4.742188 L 1.480469 3.914062 L 0.394531 3.550781 L 0.382812 3.550781 L 0.03125 3.667969 L 0.03125 17.117188 L 10.644531 21.835938 L 11 22 L 11.355469 21.835938 L 11.355469 7.277344 Z M 10.644531 21.070312 L 0.746094 16.667969 L 0.746094 4.410156 L 3.578125 5.378906 L 4.285156 5.617188 L 7.109375 6.582031 L 7.816406 6.816406 L 10.644531 7.785156 Z M 10.644531 21.070312 "/>
<path style=" stroke:none;fill-rule:nonzero;fill:rgb(0%,0%,0%);fill-opacity:1;" d="M 10.859375 18.933594 L 21.472656 14.203125 L 21.757812 14.851562 L 11.148438 19.582031 Z M 10.859375 18.933594 "/>
<path style=" stroke:none;fill-rule:nonzero;fill:rgb(0%,0%,0%);fill-opacity:1;" d="M 0.238281 14.855469 L 0.527344 14.207031 L 11.144531 18.925781 L 10.855469 19.574219 Z M 0.238281 14.855469 "/>
<path style=" stroke:none;fill-rule:nonzero;fill:rgb(0%,0%,0%);fill-opacity:1;" d="M 21.96875 3.65625 L 21.511719 4.246094 L 20.519531 3.914062 L 11 0.753906 L 1.480469 3.914062 L 0.488281 4.246094 L 0.03125 3.667969 L 0.382812 3.550781 L 0.394531 3.550781 L 11 0 L 21.628906 3.539062 Z M 21.96875 3.65625 "/>
<path style=" stroke:none;fill-rule:nonzero;fill:rgb(0%,0%,0%);fill-opacity:1;" d="M 7.574219 6.609375 L 7.472656 6.304688 L 7.109375 6.335938 L 7.109375 6.078125 L 7.351562 5.941406 L 17.964844 2.402344 L 18.191406 3.074219 Z M 7.574219 6.609375 "/>
<path style=" stroke:none;fill-rule:nonzero;fill:rgb(0%,0%,0%);fill-opacity:1;" d="M 7.816406 11.484375 L 3.566406 10.070312 L 3.566406 4.867188 L 14.425781 1.222656 L 14.652344 1.890625 L 4.273438 5.375 L 4.273438 9.558594 L 7.109375 10.503906 L 7.109375 6.277344 L 7.816406 6.277344 Z M 7.816406 11.484375 "/>
</g>
</svg>
